<svg width="33" height="33" viewBox="0 0 33 33" fill="none" xmlns="http://www.w3.org/2000/svg">
<path d="M16.5 0.5C7.668 0.5 0.5 7.668 0.5 16.5C0.5 25.332 7.668 32.5 16.5 32.5C25.332 32.5 32.5 25.332 32.5 16.5C32.5 7.668 25.332 0.5 16.5 0.5ZM16.5 5.3C19.156 5.3 21.3 7.444 21.3 10.1C21.3 12.756 19.156 14.9 16.5 14.9C13.844 14.9 11.7 12.756 11.7 10.1C11.7 7.444 13.844 5.3 16.5 5.3ZM16.5 28.02C12.5 28.02 8.964 25.972 6.9 22.868C6.948 19.684 13.3 17.94 16.5 17.94C19.684 17.94 26.052 19.684 26.1 22.868C24.036 25.972 20.5 28.02 16.5 28.02Z" fill="black"/>
</svg>
