<svg width="30" height="30" viewBox="0 0 30 30" fill="none" xmlns="http://www.w3.org/2000/svg">
<path d="M9.48828 1.04492C12.5837 -0.175651 15.9977 -0.331129 19.1914 0.602539C22.385 1.53629 25.1775 3.50648 27.1279 6.20215C29.0781 8.89778 30.0758 12.166 29.9639 15.4912C29.8518 18.8167 28.6363 22.011 26.5088 24.5693C24.3812 27.1277 21.4623 28.9056 18.2129 29.6221L18.2031 29.624L18.1943 29.626C17.6813 29.729 17.1518 29.7152 16.6445 29.5869C16.1374 29.4587 15.665 29.2191 15.2627 28.8848C14.8603 28.5503 14.5372 28.1295 14.3184 27.6543C14.1017 27.1836 13.9928 26.6704 13.998 26.1523H13.9971V22.3389H13.667C12.7265 22.3388 11.8243 21.9648 11.1592 21.2998C10.4942 20.6347 10.1202 19.7325 10.1201 18.792V13.9785H11.4521V8.88477H18.5459V13.9785H19.8271V18.792C19.8273 19.7197 19.4634 20.6105 18.8145 21.2734C18.1653 21.9364 17.2822 22.3184 16.3545 22.3379L16.3438 22.3389H15.9971V26.166C15.9939 26.3907 16.0418 26.6133 16.1357 26.8174C16.2298 27.0215 16.3682 27.203 16.541 27.3467C16.7138 27.4902 16.9169 27.5934 17.1348 27.6484C17.3509 27.703 17.5763 27.7081 17.7949 27.665C20.6055 27.0423 23.1298 25.5036 24.9707 23.29C26.8142 21.0731 27.8677 18.3055 27.9648 15.4238C28.0619 12.5422 27.1969 9.70996 25.5068 7.37402C23.8166 5.03817 21.3973 3.33055 18.6299 2.52148C15.8624 1.71244 12.904 1.84756 10.2217 2.90527C7.53941 3.96297 5.28494 5.88317 3.81445 8.36328C2.34401 10.8435 1.74151 13.7436 2.10059 16.6045C2.45976 19.4651 3.76027 22.1253 5.79785 24.165L4.38379 25.5791C2.03221 23.2252 0.530697 20.1549 0.116211 16.8535C-0.298172 13.552 0.397821 10.206 2.09473 7.34375C3.79167 4.48164 6.39289 2.26551 9.48828 1.04492ZM12.1201 18.792C12.1202 19.2021 12.2833 19.5957 12.5732 19.8857C12.8633 20.1757 13.2569 20.3388 13.667 20.3389H16.3125C16.7171 20.3304 17.1027 20.1632 17.3857 19.874C17.6685 19.5849 17.8272 19.1964 17.8271 18.792V15.9785H12.1201V18.792ZM13.4521 13.9785H16.5459V10.8848H13.4521V13.9785Z" fill="white"/>
</svg>
