<svg width="33" height="33" viewBox="0 0 33 33" fill="none" xmlns="http://www.w3.org/2000/svg">
<path d="M11.3389 27.4027C12.7407 27.4027 13.877 28.5439 13.877 29.9515C13.8768 31.359 12.7406 32.5003 11.3389 32.5003C9.93722 32.5003 8.80099 31.359 8.80081 29.9515C8.80081 28.5439 9.93711 27.4027 11.3389 27.4027ZM26.5694 27.4027C27.9711 27.4027 29.1074 28.5437 29.1074 29.9515C29.1073 31.359 27.971 32.5003 26.5694 32.5003C25.1677 32.5003 24.0315 31.359 24.0313 29.9515C24.0313 28.5437 25.1676 27.4027 26.5694 27.4027ZM0.565454 1.37142C0.787209 0.703867 1.5061 0.343204 2.17092 0.565756L2.68557 0.737631C3.74547 1.09238 4.64141 1.39298 5.34573 1.72201C6.09417 2.07169 6.74385 2.50472 7.23635 3.19076C7.72892 3.87704 7.93273 4.63354 8.02639 5.45736C8.07421 5.87803 8.09649 6.34963 8.10647 6.8724H26.2217C29.6985 6.8724 31.4371 6.87242 32.1895 8.0179C32.9418 9.16363 32.2565 10.7684 30.8867 13.9779L30.1621 15.6771C29.5226 17.1754 29.203 17.9251 28.5674 18.346C27.9317 18.7671 27.1197 18.7669 25.4961 18.7669H8.37405C8.5517 19.6842 8.83157 20.2218 9.22952 20.6214C9.69784 21.0916 10.3561 21.3982 11.5977 21.5658C12.8757 21.7383 14.5696 21.7406 16.9981 21.7406H28.8428C29.5436 21.7406 30.1122 22.3111 30.1123 23.015C30.1123 23.7188 29.5437 24.2894 28.8428 24.2894H16.9053C14.5913 24.2894 12.7258 24.2893 11.2588 24.0911C9.73599 23.8855 8.45397 23.4457 7.43557 22.4232C6.41712 21.4005 5.97823 20.1127 5.77346 18.5833C5.57624 17.1102 5.57616 15.237 5.5762 12.9134V8.37337C5.5762 7.16191 5.57464 6.35984 5.50491 5.74642C5.43893 5.16603 5.32382 4.88566 5.17776 4.68197C5.03155 4.47826 4.80311 4.27909 4.27541 4.03255C3.71798 3.77214 2.96088 3.51719 1.81643 3.13412L1.36819 2.98372C0.703276 2.76116 0.343822 2.03915 0.565454 1.37142Z" fill="black"/>
</svg>
