<svg width="33" height="33" viewBox="0 0 33 33" fill="none" xmlns="http://www.w3.org/2000/svg">
<path d="M7.8457 17.7705C11.9022 17.7708 15.1904 21.0597 15.1904 25.1162C15.19 29.1723 11.9019 32.4607 7.8457 32.4609C3.78931 32.4609 0.500444 29.1725 0.5 25.1162C0.5 21.0595 3.78904 17.7705 7.8457 17.7705ZM31.21 17.7705C31.9003 17.7705 32.46 18.3302 32.46 19.0205V29.1797C32.4595 30.9917 30.9907 32.4607 29.1787 32.4609H21.0518C19.2395 32.4609 17.77 30.9918 17.7695 29.1797V19.0205C17.7695 18.3302 18.3292 17.7705 19.0195 17.7705H31.21ZM7.8457 20.2705C5.16975 20.2705 3 22.4403 3 25.1162C3.00044 27.7918 5.17003 29.9609 7.8457 29.9609C10.5212 29.9607 12.69 27.7916 12.6904 25.1162C12.6904 22.4404 10.5214 20.2708 7.8457 20.2705ZM20.2695 29.1797C20.27 29.6111 20.6202 29.9609 21.0518 29.9609H29.1787C29.61 29.9607 29.9595 29.6109 29.96 29.1797V20.2705H20.2695V29.1797ZM13.9404 0.5C14.6307 0.5 15.1903 1.05979 15.1904 1.75V11.9092C15.1902 13.7213 13.7213 15.1902 11.9092 15.1904H3.78223C1.96993 15.1904 0.500243 13.7214 0.5 11.9092V1.75C0.500168 1.05979 1.05975 0.5 1.75 0.5H13.9404ZM25.1152 0.5C29.1716 0.500251 32.4598 3.78934 32.46 7.8457C32.4597 11.902 29.1715 15.1902 25.1152 15.1904C21.0587 15.1904 17.7698 11.9022 17.7695 7.8457C17.7697 3.78918 21.0587 0.5 25.1152 0.5ZM3 11.9092C3.00024 12.3407 3.35064 12.6904 3.78223 12.6904H11.9092C12.3406 12.6902 12.6902 12.3406 12.6904 11.9092V3H3V11.9092ZM25.1152 3C22.4394 3 20.2697 5.16989 20.2695 7.8457C20.2698 10.5214 22.4394 12.6904 25.1152 12.6904C27.7908 12.6902 29.9597 10.5213 29.96 7.8457C29.9598 5.17005 27.7909 3.00025 25.1152 3Z" fill="black"/>
</svg>
