<svg width="36" height="37" viewBox="0 0 36 37" fill="none" xmlns="http://www.w3.org/2000/svg">
<path d="M18 0C19.7647 -3.51567e-08 21.1659 -0.0011179 22.2891 0.117188C23.4326 0.237644 24.3915 0.489737 25.2422 1.0625C25.7424 1.39927 26.192 1.80693 26.5781 2.27246C27.2328 3.06187 27.5898 3.99642 27.8418 5.13477C28.0899 6.25534 28.2555 7.67213 28.4658 9.46191L28.626 10.8252C28.8433 12.6747 29.0208 14.1645 28.998 15.3398C28.9748 16.5415 28.7431 17.588 27.998 18.4453C27.2498 19.3063 26.2498 19.6706 25.0732 19.8389C23.9277 20.0027 22.4527 20 20.6299 20H19V22H26.333C26.9466 22 27.5103 22.2093 27.9609 22.5576L28.7168 20.1475C28.8392 19.7565 28.9153 19.508 29.0605 19.1748C29.1993 18.8562 29.2673 18.7364 29.3789 18.541C29.8351 17.7426 30.4219 17.0556 31.3848 16.6035C32.3037 16.1721 33.471 16 35 16C35.5523 16 36 16.4477 36 17C36 17.5523 35.5523 18 35 18C33.5841 18 32.7626 18.1667 32.2354 18.4141C31.7521 18.6409 31.4349 18.9738 31.1152 19.5332C31.072 19.6088 31.0423 19.66 31.0107 19.7217L30.8945 19.9736C30.7985 20.1939 30.751 20.3426 30.625 20.7451L29.1543 25.4414C29.0907 25.6446 28.9672 25.8118 28.8105 25.9326C28.2689 27.7079 26.6195 28.9999 24.667 29H19V31.6113L19.0498 31.625C21.0262 32.1511 22.5789 33.7047 23.2041 35.7012C23.3691 36.2282 23.0758 36.789 22.5488 36.9541C22.0218 37.1191 21.461 36.8258 21.2959 36.2988C20.9164 35.0869 20.0604 34.1551 19 33.7148V36C19 36.5523 18.5523 37 18 37C17.4477 37 17 36.5523 17 36V33.7148C15.9396 34.1551 15.0836 35.0869 14.7041 36.2988C14.539 36.8259 13.9782 37.1192 13.4512 36.9541C12.9241 36.789 12.6308 36.2282 12.7959 35.7012C13.4211 33.7047 14.9738 32.1511 16.9502 31.625L17 31.6113V29H11.333C9.3804 28.9999 7.73006 27.7081 7.18848 25.9326C7.03209 25.8118 6.90925 25.6443 6.8457 25.4414L5.375 20.7451C5.24906 20.343 5.20145 20.194 5.10547 19.9736C5.00305 19.7385 4.97119 19.6844 4.88477 19.5332C4.56515 18.9738 4.24792 18.6409 3.76465 18.4141C3.23745 18.1667 2.41589 18 1 18C0.447715 18 0 17.5523 0 17C0 16.4477 0.447715 16 1 16C2.52899 16 3.69627 16.1721 4.61523 16.6035C5.57808 17.0556 6.1649 17.7426 6.62109 18.541L6.76953 18.8115C6.81773 18.9058 6.87003 19.0154 6.93945 19.1748C7.08453 19.5079 7.16064 19.7561 7.2832 20.1475L8.03809 22.5576C8.48886 22.209 9.05315 22 9.66699 22H17V20H15.3701C13.5473 20 12.0724 20.0027 10.9268 19.8389C9.75025 19.6706 8.75024 19.3063 8.00195 18.4453C7.2569 17.588 7.02522 16.5415 7.00195 15.3398C6.97921 14.1645 7.1566 12.6747 7.37402 10.8252L7.53418 9.46191C7.74458 7.67214 7.91013 6.25532 8.1582 5.13477C8.41022 3.99644 8.7672 3.06188 9.42188 2.27246C9.80795 1.80695 10.2576 1.39927 10.7578 1.0625C11.6085 0.489741 12.5675 0.237644 13.7109 0.117188C14.8341 -0.00112266 16.2353 0 18 0ZM9.66699 24C9.2988 24 9 24.2988 9 24.667C9.00018 25.9554 10.0446 26.9998 11.333 27H17.4873C17.6374 26.9101 17.8123 26.8574 18 26.8574C18.1877 26.8574 18.3626 26.9101 18.5127 27H24.667C25.9554 26.9998 26.9998 25.9554 27 24.667C27 24.2988 26.7012 24 26.333 24H9.66699ZM18 2C16.1926 2 14.9141 2.00171 13.9199 2.10645C12.9463 2.20905 12.3494 2.4023 11.875 2.72168C11.5341 2.9512 11.2259 3.22937 10.9609 3.54883C10.5899 3.99621 10.3285 4.58626 10.1113 5.56738C9.89022 6.56622 9.73569 7.86484 9.52051 9.69531L9.36035 11.0586C9.1361 12.9661 8.98253 14.2948 9.00195 15.3008C9.02092 16.2803 9.20455 16.7793 9.51172 17.1328C9.81582 17.4827 10.2697 17.7239 11.21 17.8584C12.181 17.9972 13.4862 18 15.3701 18H20.6299C22.5138 18 23.8191 17.9972 24.79 17.8584C25.7303 17.7239 26.1842 17.4827 26.4883 17.1328C26.7955 16.7793 26.9791 16.2803 26.998 15.3008C27.0175 14.2948 26.8638 12.9662 26.6396 11.0586L26.4795 9.69531C26.2644 7.86485 26.1098 6.56621 25.8887 5.56738C25.6715 4.58627 25.4101 3.99621 25.0391 3.54883C24.7741 3.22938 24.4659 2.95121 24.125 2.72168C23.6506 2.4023 23.0537 2.20905 22.0801 2.10645C21.0859 2.00171 19.8075 2 18 2Z" fill="#E6E6E6"/>
</svg>
