<svg width="51" height="41" viewBox="0 0 51 41" fill="none" xmlns="http://www.w3.org/2000/svg">
<path d="M35.0908 19.2285C35.5119 19.2317 35.7437 19.2375 36.1084 19.418C36.3726 19.6487 36.4051 19.7723 36.4082 20.0771C36.4096 20.1839 36.4097 20.184 36.4111 20.293C36.4117 20.3713 36.4125 20.4496 36.4131 20.5303C36.4141 20.6125 36.415 20.6946 36.416 20.7793C36.4191 21.0523 36.4214 21.3257 36.4238 21.5986C36.4258 21.7876 36.4286 21.9771 36.4307 22.166C36.4361 22.664 36.4406 23.1622 36.4453 23.6602C36.4502 24.168 36.4555 24.6758 36.4609 25.1836C36.4715 26.1808 36.4817 27.1786 36.4912 28.1758C36.5762 28.1744 36.6615 28.1724 36.749 28.1709C36.8615 28.1698 36.974 28.1691 37.0898 28.168C37.2011 28.1666 37.3131 28.1645 37.4277 28.1631C38.3361 28.1957 38.9993 28.5217 39.6162 29.0352L39.8359 29.2158C40.3659 29.8671 40.5967 30.6036 40.3975 31.3789C40.1036 32.0798 39.6524 32.7239 39.2012 33.3662C39.1688 33.4124 39.1358 33.4582 39.1025 33.5059C38.6325 34.1771 38.1536 34.831 37.5654 35.4414C37.4646 35.5478 37.4642 35.5478 37.3613 35.6562C35.0098 38.0467 31.5575 39.638 27.7773 40.0283C26.8036 40.1062 25.8181 40.084 24.8408 40.083C24.576 40.0835 24.3108 40.0842 24.0459 40.085C23.4052 40.0866 22.7637 40.0871 22.123 40.0869C21.6026 40.0868 21.082 40.0873 20.5615 40.0879C20.4109 40.0881 20.26 40.0887 20.1094 40.0889C19.9973 40.089 19.9971 40.0887 19.8828 40.0889C18.4702 40.0903 17.0572 40.0904 15.6445 40.0898C14.3523 40.0894 13.0598 40.0912 11.7676 40.0938C10.4382 40.0964 9.10872 40.097 7.7793 40.0967C7.03391 40.0965 6.28835 40.0967 5.54297 40.0986C4.90953 40.1003 4.27602 40.1011 3.64258 40.0996C3.31964 40.0989 2.99676 40.0992 2.67383 40.1006C2.32381 40.102 1.97306 40.1002 1.62305 40.0986C1.52095 40.0996 1.41867 40.1006 1.31348 40.1016C0.861045 40.0971 0.625191 40.0901 0.246094 39.8799C0.0417544 39.6313 0.00412427 39.507 0.00390625 39.2119C0.00267196 39.1226 0.00127167 39.0334 0 38.9414C0.00114134 38.8441 0.00273035 38.7467 0.00390625 38.6465C0.00285811 38.4919 0.00204588 38.4917 0.000976562 38.334C-0.000829319 38.0518 0.00100831 37.7694 0.00292969 37.4873C0.00452915 37.1919 0.00342667 36.896 0.00292969 36.6006C0.00248971 36.1045 0.00410703 35.6084 0.00683594 35.1123C0.00996493 34.539 0.00949575 33.9658 0.0078125 33.3926C0.00626256 32.8406 0.00712316 32.2883 0.00878906 31.7363C0.00945927 31.5017 0.00950964 31.2669 0.00878906 31.0322C0.0079008 30.7043 0.0100186 30.3757 0.0126953 30.0479C0.0120591 29.9507 0.0113977 29.853 0.0107422 29.7529C0.0119827 29.6637 0.0133703 29.5743 0.0146484 29.4824C0.0149221 29.4051 0.0153431 29.3277 0.015625 29.248C0.0788457 28.9757 0.220086 28.8434 0.456055 28.6445C0.743022 28.5298 0.999911 28.5547 1.32031 28.5527C1.38894 28.5522 1.45761 28.5513 1.52832 28.5508C1.75618 28.5492 1.98404 28.5486 2.21191 28.5479C2.32868 28.5474 2.32918 28.5474 2.44824 28.5469C2.86032 28.5452 3.27249 28.5437 3.68457 28.543C4.11017 28.5421 4.53633 28.5392 4.96191 28.5361C5.28906 28.5341 5.6162 28.5335 5.94336 28.5332C6.10023 28.5328 6.2572 28.5317 6.41406 28.5303C6.63381 28.5284 6.85348 28.5288 7.07324 28.5293C7.1982 28.5288 7.32341 28.5288 7.45215 28.5283C7.83633 28.573 7.99659 28.6615 8.26855 28.8789C8.38123 29.0875 8.41207 29.2779 8.46387 29.5039C8.558 29.4428 8.65204 29.3813 8.74902 29.3184C8.87357 29.2385 8.99844 29.1589 9.12305 29.0791C9.18492 29.0388 9.2468 28.9985 9.31055 28.957C9.37089 28.9186 9.43099 28.8795 9.49316 28.8398C9.54839 28.8043 9.60423 28.7691 9.66113 28.7324C9.84727 28.6363 10.0071 28.6054 10.2217 28.5664C10.2211 28.4994 10.2213 28.499 10.2207 28.4307C10.2121 27.3431 10.2053 26.2555 10.2012 25.168C10.1992 24.642 10.1959 24.1158 10.1914 23.5898C10.1871 23.0824 10.1856 22.5749 10.1846 22.0674C10.1838 21.8738 10.1818 21.6799 10.1797 21.4863C10.1769 21.2152 10.1766 20.944 10.1768 20.6729C10.1754 20.5927 10.1743 20.5122 10.1729 20.4297C10.1762 19.967 10.2246 19.6993 10.6123 19.3477C10.8387 19.2571 10.9686 19.2593 11.2207 19.2588C11.3077 19.2584 11.3947 19.2582 11.4844 19.2578C11.6289 19.2578 11.6291 19.2578 11.7764 19.2578C11.8781 19.2575 11.9801 19.2571 12.085 19.2568C12.4286 19.256 12.7726 19.2562 13.1162 19.2559C13.3617 19.2554 13.608 19.2545 13.8535 19.2539C14.5918 19.2524 15.3301 19.2517 16.0684 19.251C16.4159 19.2506 16.7637 19.2504 17.1113 19.25C18.2665 19.2487 19.422 19.2476 20.5771 19.2471C20.8769 19.2469 21.1768 19.2462 21.4766 19.2461C21.551 19.2461 21.6255 19.2461 21.7021 19.2461C22.9098 19.2454 24.1175 19.2437 25.3252 19.2412C26.5644 19.2386 27.8037 19.2366 29.043 19.2363C29.7391 19.2362 30.4357 19.2354 31.1318 19.2334C31.7864 19.2315 32.4411 19.2316 33.0957 19.2324C33.3362 19.2325 33.5768 19.2315 33.8174 19.2305C34.1452 19.2291 34.473 19.2304 34.8008 19.2314C34.8965 19.2306 34.9922 19.2294 35.0908 19.2285ZM15.4951 29.2695C13.166 29.1401 11.1579 29.6291 9.51367 31.0176C8.5218 31.9553 8.27932 32.7521 8.30859 33.9404C8.30969 34.0721 8.31094 34.2042 8.31152 34.3359C8.31374 34.6796 8.31868 35.0235 8.3252 35.3672C8.33123 35.719 8.33397 36.071 8.33691 36.4229C8.34316 37.1112 8.35383 37.8 8.36621 38.4883C10.6226 38.4919 12.8794 38.4944 15.1357 38.4961C16.1835 38.4969 17.2315 38.4982 18.2793 38.5C19.1934 38.5016 20.1074 38.5026 21.0215 38.5029C21.5047 38.5031 21.9884 38.5037 22.4717 38.5049C27.0028 38.5152 30.9009 38.2509 34.4404 35.7539C34.5236 35.6954 34.6067 35.6364 34.6924 35.5762C36.1847 34.4511 37.114 32.9697 38.0537 31.5352C38.1346 31.4134 38.1344 31.413 38.2168 31.2891C38.3842 31.001 38.4398 30.7492 38.3467 30.4414C38.1157 30.1392 37.8914 29.9295 37.4678 29.8164C37.0114 29.782 36.7326 29.8053 36.3555 30.0186C36.0367 30.2417 35.8063 30.5223 35.5635 30.7979C35.4432 30.9314 35.3225 31.0647 35.2021 31.1982C35.1103 31.301 35.1102 31.3015 35.0166 31.4062C34.7205 31.7362 34.418 32.063 34.1162 32.3896C34.0024 32.5129 33.8882 32.6365 33.7744 32.7598C33.6948 32.8459 33.6947 32.8464 33.6133 32.9346C33.479 33.0806 33.3455 33.2271 33.2129 33.374C32.0538 34.6442 30.6339 35.5241 28.6611 35.7959C28.2504 35.8348 27.8506 35.8443 27.4375 35.8447C27.3555 35.8451 27.273 35.8453 27.1885 35.8457C26.9189 35.8468 26.6494 35.8472 26.3799 35.8477C26.1915 35.8481 26.0028 35.8482 25.8145 35.8486C25.4207 35.8495 25.0266 35.8503 24.6328 35.8506C24.1284 35.851 23.6235 35.8533 23.1191 35.8555C22.7308 35.8569 22.3425 35.8573 21.9541 35.8574C21.7681 35.8577 21.5815 35.8574 21.3955 35.8584C21.1357 35.8597 20.876 35.8599 20.6162 35.8594C20.5396 35.8601 20.4627 35.8606 20.3838 35.8613C19.9409 35.8586 19.6565 35.8161 19.3037 35.5977C19.0768 35.347 19.062 35.1198 19.1084 34.8164C19.2842 34.6055 19.4095 34.4616 19.6943 34.3477C19.9044 34.3398 20.1149 34.3364 20.3252 34.3359C20.3899 34.3357 20.4548 34.3352 20.5215 34.335C20.6623 34.3344 20.8035 34.3343 20.9443 34.334C21.1676 34.3334 21.391 34.3325 21.6143 34.3311C22.2492 34.327 22.8846 34.3235 23.5195 34.3223C23.9078 34.3215 24.2963 34.3187 24.6846 34.3154C24.8322 34.3145 24.9803 34.3143 25.1279 34.3145C25.3352 34.3146 25.5428 34.3127 25.75 34.3105C25.8678 34.3101 25.986 34.31 26.1074 34.3096C26.5718 34.2524 26.8725 34.0777 27.1953 33.8105C27.3503 33.5887 27.3967 33.4307 27.4092 33.1758C27.2533 32.7739 27.0775 32.5391 26.6279 32.3164C26.2752 32.2438 25.9443 32.2287 25.5811 32.2285C25.4713 32.2282 25.3611 32.2278 25.248 32.2275C25.1305 32.2275 25.0127 32.2266 24.8916 32.2266C24.6418 32.2251 24.3914 32.2243 24.1416 32.2227C23.7481 32.2204 23.3544 32.2186 22.9609 32.2188C22.581 32.2185 22.2012 32.215 21.8213 32.2119C21.7037 32.2125 21.586 32.2133 21.4648 32.2139C20.648 32.2043 20.6474 32.204 20.2637 31.9746C20.2047 31.9069 20.1457 31.8393 20.085 31.7695C20.016 31.6966 19.947 31.623 19.876 31.5479C19.8081 31.4711 19.7399 31.3945 19.6699 31.3154C18.6508 30.2195 17.2006 29.4779 15.4951 29.2695ZM2.01855 38.4883H6.31543V30.207H2.01855V38.4883ZM12.2725 27.8633L13.3467 27.707C15.713 27.5342 17.9583 27.9256 19.8418 29.1182C20.4149 29.5 20.988 29.9445 21.3877 30.4502C21.5334 30.6106 21.5336 30.6108 21.7559 30.6367C21.8351 30.6369 21.9145 30.6375 21.9961 30.6377C22.0863 30.6387 22.1766 30.6396 22.2695 30.6406C22.3671 30.6402 22.4649 30.6401 22.5654 30.6396C22.7171 30.641 22.7174 30.6412 22.8721 30.6426C23.1962 30.6453 23.5206 30.646 23.8447 30.6465C24.166 30.6478 24.4874 30.6488 24.8086 30.6514C25.0084 30.6529 25.2084 30.6545 25.4082 30.6543C26.5763 30.6611 27.5724 30.7861 28.4648 31.4277C29.1392 32.0091 29.378 32.6955 29.3682 33.4736C29.3673 33.5642 29.3661 33.6547 29.3652 33.748C29.3635 33.8512 29.364 33.8518 29.3623 33.957C30.7878 33.4832 31.5354 32.5487 32.4062 31.5771C32.5824 31.3807 32.7601 31.185 32.9375 30.9893C33.244 30.6509 33.5501 30.3122 33.8545 29.9727C33.937 29.8964 34.0195 29.8198 34.1045 29.7412C34.4312 29.3722 34.4074 29.0212 34.3975 28.582C34.3975 28.499 34.3984 28.4156 34.3984 28.3301C34.3981 28.0565 34.3935 27.7823 34.3896 27.5088C34.3887 27.3188 34.3882 27.1285 34.3877 26.9385C34.3858 26.4391 34.3814 25.9398 34.376 25.4404C34.3701 24.8406 34.3681 24.2404 34.3652 23.6406C34.3605 22.7304 34.3512 21.8203 34.3428 20.9102H28.0928C28.0761 22.2292 28.0759 22.2295 28.0635 23.5488C28.0606 23.7144 28.0579 23.8803 28.0547 24.0459C28.0546 24.1315 28.0538 24.2175 28.0537 24.3057C28.0456 24.6521 28.0348 24.9063 27.8447 25.2207C27.5167 25.4148 27.2224 25.4645 26.8232 25.4414C26.5481 25.3815 26.3044 25.2877 26.0508 25.1846C25.9061 25.1298 25.7619 25.0742 25.6172 25.0195C25.3926 24.9325 25.168 24.8455 24.9443 24.7568C24.033 24.348 24.0331 24.3481 23.0479 24.3203C22.9046 24.3786 22.7636 24.4402 22.624 24.5039C22.3989 24.5821 22.1727 24.6587 21.9463 24.7344C21.8236 24.7765 21.7006 24.8189 21.5781 24.8613C21.5163 24.8827 21.4543 24.9038 21.3906 24.9258C21.2645 24.9697 21.1384 25.0148 21.0127 25.0596C19.7013 25.5253 19.7006 25.5254 19.0107 25.3633C18.7527 25.2168 18.7223 25.1398 18.6201 24.8945C18.6089 24.764 18.6024 24.6328 18.5996 24.502C18.5976 24.4211 18.5958 24.3401 18.5938 24.2568C18.5913 24.1297 18.5913 24.1296 18.5889 24C18.587 23.9219 18.5849 23.8432 18.583 23.7627C18.5763 23.471 18.5704 23.1794 18.5645 22.8877C18.5504 22.2352 18.537 21.5824 18.5225 20.9102H12.2725V27.8633ZM20.5732 23.4102C21.2254 23.2362 21.8271 23.0486 22.4414 22.8115C22.9793 22.614 23.3887 22.545 23.9707 22.7031C24.2879 22.8032 24.5999 22.9099 24.9121 23.0195C25.2847 23.1484 25.6581 23.2773 26.042 23.4102V20.9102H20.5732V23.4102ZM48.8145 0C49.2683 0.00397437 49.5062 0.0100405 49.8867 0.220703C50.0906 0.46927 50.1287 0.594084 50.1289 0.888672C50.1308 1.02273 50.1299 1.02339 50.1318 1.16016C50.1307 1.25742 50.1301 1.35487 50.1289 1.45508C50.13 1.60949 50.1298 1.60992 50.1309 1.76758C50.1327 2.0495 50.1318 2.33136 50.1299 2.61328C50.1283 2.90873 50.1284 3.20455 50.1289 3.5C50.1293 3.99624 50.1277 4.49302 50.125 4.98926C50.1219 5.56251 50.1223 6.13573 50.124 6.70898C50.1256 7.26099 50.1247 7.81323 50.123 8.36523C50.1224 8.59994 50.1223 8.83463 50.123 9.06934C50.1239 9.39716 50.1218 9.72492 50.1191 10.0527C50.1201 10.1987 50.1201 10.1989 50.1211 10.3477C50.1192 10.4817 50.1191 10.4824 50.1172 10.6191C50.1169 10.6965 50.1165 10.7738 50.1162 10.8535C50.053 11.1257 49.9126 11.2583 49.6768 11.457C49.3897 11.5718 49.1329 11.5469 48.8125 11.5488C48.7437 11.5493 48.6744 11.5503 48.6035 11.5508C48.3757 11.5523 48.1478 11.5529 47.9199 11.5537C47.8031 11.5542 47.8027 11.5542 47.6836 11.5547C47.2716 11.5563 46.8593 11.5579 46.4473 11.5586C46.0218 11.5595 45.5964 11.5614 45.1709 11.5645C44.8436 11.5665 44.5158 11.5671 44.1885 11.5674C44.0317 11.5678 43.8745 11.5689 43.7178 11.5703C43.4983 11.5722 43.279 11.5728 43.0596 11.5723C42.8722 11.573 42.8716 11.5725 42.6807 11.5732C42.2965 11.5286 42.1369 11.4392 41.8643 11.2227C41.7323 11.0116 41.7338 10.8228 41.7119 10.5879C41.6996 10.4595 41.699 10.4591 41.6865 10.3281C41.6806 10.2624 41.675 10.1966 41.6689 10.1289C41.5872 10.1695 41.5051 10.2101 41.4209 10.252C40.1127 10.8855 38.707 11.3059 37.1582 11.3018C37.0704 11.3016 36.9821 11.3019 36.8916 11.3018C36.7911 11.3014 36.7908 11.3011 36.6885 11.3008C36.6895 11.4079 36.6894 11.4083 36.6904 11.5176C36.6963 12.191 36.7003 12.8647 36.7031 13.5381C36.7047 13.8841 36.7066 14.2301 36.71 14.5762C36.7131 14.9105 36.7151 15.2457 36.7158 15.5801C36.7164 15.7073 36.7181 15.8347 36.7197 15.9619C36.7219 16.1406 36.7218 16.3193 36.7217 16.498C36.7227 16.6505 36.7226 16.6511 36.7236 16.8066C36.685 17.1084 36.5962 17.2947 36.3955 17.5508C36.0807 17.7187 35.9956 17.7269 35.6328 17.7285C35.5362 17.7293 35.4394 17.7297 35.3398 17.7305C35.234 17.7305 35.1276 17.7314 35.0186 17.7314C34.8515 17.7324 34.8514 17.7324 34.6807 17.7334C34.3105 17.7353 33.9404 17.7358 33.5703 17.7363C33.3135 17.737 33.0566 17.7376 32.7998 17.7383C32.2611 17.7396 31.7223 17.74 31.1836 17.7402C30.5613 17.7405 29.9387 17.7428 29.3164 17.7461C28.7175 17.7491 28.1184 17.7499 27.5195 17.75C27.265 17.7503 27.0104 17.7513 26.7559 17.7529C26.3998 17.755 26.0436 17.7549 25.6875 17.7539C25.5294 17.7556 25.5292 17.756 25.3682 17.7578C24.6539 17.7522 24.6531 17.7521 24.2695 17.5215C24.076 17.3002 24.0241 17.193 24.0293 16.9258C24.028 16.8613 24.0267 16.7969 24.0254 16.7305C24.1254 16.4291 24.2638 16.3309 24.5791 16.1445C24.9725 16.0896 25.3605 16.0992 25.7588 16.1064C25.8729 16.107 25.987 16.1078 26.1045 16.1084C26.4687 16.1106 26.8331 16.1151 27.1973 16.1201C27.4443 16.1221 27.6914 16.1234 27.9385 16.125C28.5439 16.1293 29.1496 16.1363 29.7549 16.1445C29.7671 16.092 29.7794 16.0395 29.792 15.9854C29.8087 15.9158 29.8256 15.846 29.8428 15.7744C29.8591 15.7056 29.8748 15.6363 29.8916 15.5654C29.9773 15.2679 30.1235 15.0086 30.2979 14.7383C30.332 14.6848 30.3661 14.6313 30.4014 14.5762C31.1077 13.5154 32.2568 12.8013 33.6611 12.3945C33.9869 12.3276 34.3049 12.2807 34.6377 12.2383V11.0664C34.4908 11.0406 34.3437 11.0148 34.1924 10.9883C33.693 10.8796 33.2553 10.7228 32.8008 10.5293C32.7401 10.5037 32.6787 10.4785 32.6162 10.4521C32.3088 10.3173 32.0618 10.1825 31.8105 9.98633C31.4711 9.7923 31.3503 9.80792 30.9521 9.8584C30.5606 9.92302 30.1808 10.0138 29.7988 10.1074C29.6199 10.1499 29.4407 10.192 29.2617 10.2344C28.9835 10.3009 28.7055 10.3678 28.4277 10.4355C26.1355 10.9924 26.1352 10.9926 25.0674 10.7539C25.0734 10.8393 25.0797 10.9247 25.0859 11.0127C25.0801 11.8926 24.6067 12.6801 23.8652 13.3174C23.4931 13.5955 23.0862 13.7861 22.626 13.957C22.527 13.9946 22.5267 13.9948 22.4258 14.0332C21.5367 14.3206 20.4295 14.2947 19.5332 14.0371C18.3243 13.6103 17.5291 12.9843 17.0469 11.9932C16.6924 11.0665 16.8233 10.1603 17.3867 9.30176C17.527 9.12521 17.6761 8.96317 17.8408 8.80078C17.8898 8.75197 17.9388 8.70263 17.9893 8.65234C18.5506 8.15095 19.4285 7.75016 20.2783 7.69434C21.9515 7.66689 21.9519 7.667 22.7236 7.94141C22.745 7.87538 22.7661 7.80924 22.7881 7.74121C23.1154 6.80447 23.4782 6.434 24.4814 5.83203L12.1768 5.75391L11.9814 6.53516C11.8693 6.75668 11.7582 6.9597 11.6211 7.16992C11.5688 7.25103 11.569 7.25122 11.5156 7.33398C10.8033 8.40589 9.61368 9.1282 8.17285 9.50391L7.3916 9.66016L7.29395 12.2383L8.27051 12.3945C8.54195 12.4792 8.78896 12.5624 9.0459 12.668C9.14579 12.709 9.14591 12.7091 9.24805 12.751C10.6943 13.3711 11.6437 14.3931 12.1221 15.6348C12.1766 15.8319 12.1768 15.832 12.1768 16.1445C12.2331 16.1437 12.2896 16.1425 12.3477 16.1416C12.9352 16.133 13.5227 16.1273 14.1104 16.123C14.3296 16.1211 14.5493 16.1186 14.7686 16.1152C15.0839 16.1105 15.3994 16.1082 15.7148 16.1064C15.8127 16.1044 15.9109 16.1027 16.0117 16.1006C16.6931 16.1004 16.6932 16.1002 17.0723 16.3301C17.2695 16.5518 17.3207 16.6566 17.3154 16.9258C17.3173 17.0225 17.3174 17.0225 17.3193 17.1211C17.2209 17.4176 17.0722 17.5209 16.7666 17.707C16.4165 17.7654 16.0714 17.7606 15.7148 17.7578C15.6089 17.7585 15.5027 17.7591 15.3936 17.7598C15.0436 17.7615 14.6937 17.7601 14.3438 17.7588C14.1004 17.7591 13.8566 17.7593 13.6133 17.7598C13.0381 17.7604 12.4629 17.7589 11.8877 17.7568C11.4292 17.7554 10.9703 17.7562 10.5117 17.7578C9.87928 17.7601 9.2467 17.761 8.61426 17.7598C8.37337 17.7595 8.13249 17.7598 7.8916 17.7607C7.55477 17.7617 7.21768 17.76 6.88086 17.7578C6.78111 17.7586 6.6809 17.759 6.57812 17.7598C6.48628 17.7587 6.39443 17.758 6.2998 17.7568C6.22028 17.7567 6.14052 17.756 6.05859 17.7559C5.70798 17.6808 5.56087 17.5431 5.34082 17.3164C5.27941 17.0707 5.27888 17.0706 5.27832 16.7891C5.27756 16.737 5.27715 16.6845 5.27637 16.6309C5.27442 16.457 5.27581 16.2832 5.27734 16.1094C5.27668 15.9845 5.27548 15.8593 5.27441 15.7344C5.27219 15.3956 5.27384 15.0565 5.27539 14.7178C5.27662 14.3633 5.27518 14.0088 5.27441 13.6543C5.27353 13.0589 5.27502 12.4635 5.27734 11.8682C5.28 11.1798 5.27905 10.4911 5.27637 9.80273C5.27415 9.2117 5.27314 8.62033 5.27441 8.0293C5.27518 7.67625 5.27603 7.32277 5.27441 6.96973C5.273 6.63781 5.27355 6.30555 5.27637 5.97363C5.27701 5.85198 5.27647 5.73005 5.27539 5.6084C5.27406 5.44214 5.27589 5.27562 5.27832 5.10938C5.2785 5.01656 5.27911 4.92375 5.2793 4.82812C5.3586 4.51082 5.52208 4.39474 5.8291 4.19141C6.11426 4.07739 6.35756 4.11048 6.67578 4.11719C6.8147 4.11975 6.95385 4.12256 7.09277 4.125C7.16675 4.12638 7.24116 4.12749 7.31738 4.12891C7.79412 4.13666 8.27123 4.13795 8.74805 4.14062C9.16556 4.14329 9.58265 4.14827 10 4.1582C12.1014 4.27537 12.102 4.27578 13.9238 3.60449C14.1602 3.39395 14.3668 3.17383 14.5664 2.94043C16.186 1.25638 19.6804 0.389273 22.1807 0.0878906C22.6997 0.0371403 23.217 0.0392602 23.7393 0.0390625C23.8496 0.0387201 23.9605 0.0384387 24.0742 0.0380859C24.443 0.0370451 24.8118 0.0366123 25.1807 0.0361328C25.4455 0.0355559 25.7107 0.0348524 25.9756 0.0341797C26.7691 0.0322708 27.5629 0.030307 28.3564 0.0292969C28.5804 0.0290068 28.8044 0.0286375 29.0283 0.0283203C30.4211 0.02635 31.8142 0.0253876 33.207 0.0244141C33.5291 0.0241852 33.8518 0.023673 34.1738 0.0234375C34.2537 0.0233793 34.3337 0.0234975 34.416 0.0234375C35.7145 0.0224475 37.013 0.019852 38.3115 0.0166016C39.6454 0.0132898 40.9796 0.0111508 42.3135 0.0107422C43.0622 0.0104753 43.8109 0.00940729 44.5596 0.00683594C45.1966 0.00465158 45.8337 0.00400683 46.4707 0.00488281C46.7956 0.00528845 47.1204 0.00464639 47.4453 0.00292969C47.7974 0.0011689 48.1498 0.00168433 48.502 0.00292969C48.6563 0.00130288 48.657 0.00165967 48.8145 0ZM20.3672 16.0713C20.7894 16.0614 21.14 16.1646 21.4961 16.3398C21.7406 16.6531 21.7287 16.9584 21.6484 17.3164C21.4655 17.5603 21.4652 17.5606 21.1602 17.707C20.6695 17.7842 20.3103 17.7675 19.8789 17.5605C19.6215 17.2174 19.5944 16.9256 19.6953 16.5352C19.902 16.3101 20.0578 16.195 20.3672 16.0713ZM7.29395 13.957V16.1445H10.126C9.62559 15.1438 9.07245 14.4769 7.81934 14.0205C7.58141 13.9448 7.58144 13.9445 7.29395 13.957ZM34.6377 13.957C33.9885 13.957 33.3171 14.3266 32.8477 14.6709C32.3432 15.1227 32.028 15.5461 31.9033 16.1445H34.6377V13.957ZM21.8447 9.42578C20.8715 9.16625 20.0566 9.33257 19.373 9.92383C19.0127 10.2884 18.8925 10.592 18.9209 11.0566C18.9984 11.5308 19.2247 11.8877 19.6748 12.2051C20.2567 12.5502 20.7495 12.6094 21.4541 12.5508C22.0615 12.409 22.4751 12.1078 22.8213 11.6914C23.0572 11.2881 23.1175 10.8663 22.9561 10.4385C22.7168 10.0006 22.3283 9.69987 21.8447 9.42578ZM43.8174 9.89453H48.1143V1.61328H43.8174V9.89453ZM27.6602 1.59668C23.6171 1.58747 19.6056 1.64741 16.376 3.87891L16.1807 4.11328C18.2018 4.12244 20.223 4.12958 22.2441 4.13379C23.1828 4.1358 24.1219 4.13809 25.0605 4.14258C25.8792 4.14649 26.6979 4.14952 27.5166 4.15039C27.9494 4.1509 28.3826 4.15143 28.8154 4.1543C29.2242 4.15698 29.6332 4.15781 30.042 4.15723C30.1906 4.15733 30.3397 4.15864 30.4883 4.16016C31.4603 4.16958 32.2838 4.05708 33.207 3.81055C33.7277 3.68244 34.1851 3.61462 34.6865 3.8252C34.9078 4.02437 34.9306 4.19264 34.9609 4.45508C34.9229 4.80814 34.8648 4.88823 34.54 5.12891C34.1732 5.25769 33.7901 5.33723 33.4043 5.42188C33.2145 5.46561 33.0248 5.50988 32.835 5.55371C32.609 5.60567 32.3825 5.65678 32.1562 5.70801C31.1775 5.93012 30.2003 6.15787 29.2236 6.38574C28.8389 6.47544 28.4535 6.56388 28.0684 6.65234C27.7648 6.72221 27.4615 6.79376 27.1582 6.86426C27.0477 6.88945 26.9371 6.91448 26.8232 6.94043C25.8068 7.16182 25.8067 7.16175 24.9697 7.64355C24.8298 7.95836 24.7937 8.23679 24.8721 8.56641C25.0723 8.86633 25.3559 9.06737 25.751 9.19141C26.4624 9.21454 27.1532 9.03054 27.8242 8.86328C28.0315 8.81333 28.239 8.76378 28.4463 8.71387C28.769 8.63522 29.0916 8.55598 29.4141 8.47656C29.728 8.39954 30.0429 8.32359 30.3574 8.24805C30.4531 8.22403 30.5489 8.20052 30.6475 8.17578C31.1666 8.05178 31.56 7.98158 32.0986 8.09766C32.3183 8.21505 32.5053 8.3272 32.7031 8.46387C34.0768 9.35245 35.6992 9.78789 37.4697 9.66016C39.0459 9.51186 40.4724 8.91095 41.5811 8.00879C41.8148 7.72688 41.8187 7.50063 41.8105 7.17383C41.8106 7.11372 41.8105 7.05314 41.8105 6.99121C41.8103 6.79308 41.8078 6.5946 41.8047 6.39648C41.804 6.25881 41.8031 6.12107 41.8027 5.9834C41.8012 5.6214 41.7973 5.25944 41.793 4.89746C41.789 4.52774 41.7871 4.15781 41.7852 3.78809C41.781 3.06314 41.7748 2.33821 41.7666 1.61328C39.5102 1.60962 37.2535 1.60715 34.9971 1.60547C33.9493 1.60467 32.9013 1.60336 31.8535 1.60156C30.9392 1.6 30.0246 1.59898 29.1104 1.59863C28.6271 1.59843 28.1434 1.59783 27.6602 1.59668ZM7.29395 7.94141C8.39815 7.64693 9.25219 7.20655 9.84961 6.37695C9.97203 6.15947 10.0283 5.99356 10.0283 5.75391H7.29395V7.94141Z" fill="white"/>
</svg>
