<svg width="54" height="39" viewBox="0 0 54 39" fill="none" xmlns="http://www.w3.org/2000/svg">
<path d="M10.3333 27H15.8889M2 17H52M2 9.5H52M27 27H38.1111M10.8889 37H43.1111C46.2225 37 47.7783 37 48.9667 36.455C50.0119 35.9757 50.8619 35.2108 51.3944 34.27C52 33.2005 52 31.8003 52 29V10C52 7.19975 52 5.7996 51.3944 4.73005C50.8619 3.78923 50.0119 3.02432 48.9667 2.54497C47.7783 2 46.2225 2 43.1111 2H10.8889C7.7775 2 6.22178 2 5.03339 2.54497C3.98803 3.02432 3.13814 3.78923 2.60553 4.73005C2 5.7996 2 7.19972 2 10V29C2 31.8003 2 33.2005 2.60553 34.27C3.13814 35.2108 3.98803 35.9757 5.03339 36.455C6.22178 37 7.77747 37 10.8889 37Z" stroke="white" stroke-width="4" stroke-linecap="round" stroke-linejoin="round"/>
</svg>
