<svg width="23" height="30" viewBox="0 0 23 30" fill="none" xmlns="http://www.w3.org/2000/svg">
<path d="M18.8133 1H3.54667C2.14018 1 1 2.14018 1 3.54667V26.4533C1 27.8598 2.14018 29 3.54667 29H18.8133C20.2198 29 21.36 27.8598 21.36 26.4533V3.54667C21.36 2.14018 20.2198 1 18.8133 1Z" stroke="#E6E6E6" stroke-width="2" stroke-miterlimit="10"/>
<path d="M16.2804 6.09375H6.09375V11.1871H16.2804V6.09375Z" stroke="#E6E6E6" stroke-width="2" stroke-miterlimit="10"/>
<path d="M11.1885 25.174C11.8881 25.174 12.4552 24.6069 12.4552 23.9073C12.4552 23.2077 11.8881 22.6406 11.1885 22.6406C10.489 22.6406 9.92188 23.2077 9.92188 23.9073C9.92188 24.6069 10.489 25.174 11.1885 25.174Z" fill="#E6E6E6"/>
<path d="M6.09375 16.2656H16.2804" stroke="#E6E6E6" stroke-width="2" stroke-miterlimit="10"/>
</svg>
