<svg width="28" height="28" viewBox="0 0 28 28" fill="none" xmlns="http://www.w3.org/2000/svg">
<path fill-rule="evenodd" clip-rule="evenodd" d="M24 0.25C26.0711 0.25 27.75 1.92894 27.75 4V24C27.75 26.0711 26.0711 27.75 24 27.75H4C1.92894 27.75 0.25 26.0711 0.25 24V4C0.25 1.92894 1.92894 0.25 4 0.25H24ZM24 2.75C24.6904 2.75 25.25 3.30965 25.25 4V24C25.25 24.6904 24.6904 25.25 24 25.25H17.75V16.4999H20.3452C20.8832 16.4999 21.3609 16.1556 21.5311 15.6451L22.0849 13.9839C22.2872 13.3767 21.8354 12.7499 21.1955 12.7499H17.75V10.2499C17.75 9.62489 18.375 8.99989 19 8.99989H21.5C22.1904 8.99989 22.75 8.44024 22.75 7.7499V6.89241C22.75 6.48863 22.4921 6.12662 22.1016 6.02358C20.4631 5.59118 19 5.59118 19 5.59118C15.875 5.59118 14 7.7499 14 9.62489V12.7499H11.5C10.8096 12.7499 10.25 13.3095 10.25 13.9999V15.2499C10.25 15.9402 10.8096 16.4999 11.5 16.4999H14V25.25H4C3.30965 25.25 2.75 24.6904 2.75 24V4C2.75 3.30965 3.30965 2.75 4 2.75H24Z" fill="#0077FF"/>
</svg>
