<svg width="31" height="31" viewBox="0 0 31 31" fill="none" xmlns="http://www.w3.org/2000/svg">
<path d="M15.3281 0C23.2142 0 30.6562 6.92527 30.6562 15.5C30.6562 16.8671 30.2195 18.6814 29.7188 20.3447C29.3172 21.6786 28.8507 22.9873 28.4678 24.0146C28.3972 24.2172 28.321 24.4199 28.2383 24.6221C28.2178 24.6758 28.1993 24.729 28.1797 24.7803C28.1606 24.8303 28.1362 24.8769 28.1104 24.9219C27.9429 25.3024 27.7559 25.6815 27.5459 26.0547C26.4946 27.9225 25.0641 29.3907 23.5527 30.2285C22.0575 31.0573 20.3178 31.3409 18.8564 30.4756L17.9131 29.9189L17.9062 29.9141C17.4307 29.6274 17.0881 29.1659 16.9482 28.6309C16.8086 28.096 16.8814 27.5265 17.1523 27.0439L17.1533 27.043L23.1387 16.4072C23.2731 16.1673 23.4533 15.9556 23.6699 15.7852C23.8874 15.614 24.1369 15.4876 24.4043 15.4141C24.6717 15.3405 24.9515 15.3209 25.2266 15.3574C25.4329 15.3848 25.6332 15.4436 25.8213 15.5303L26.0049 15.626L26.0078 15.6279L26.9502 16.1855H26.9512C27.5633 16.5481 28.0263 17.055 28.3623 17.6484C28.5448 16.8214 28.6562 16.0809 28.6562 15.5C28.6562 8.05799 22.138 2 15.3281 2C8.51824 2 2 8.05799 2 15.5C2.00002 16.09 2.10943 16.8327 2.29004 17.6602C2.62638 17.0616 3.09188 16.5506 3.70801 16.1855L4.65137 15.6279L4.65332 15.626C4.8922 15.4856 5.15757 15.3939 5.43262 15.3574C5.70745 15.321 5.98666 15.3406 6.25391 15.4141C6.52135 15.4876 6.77167 15.6139 6.98926 15.7852C7.20584 15.9556 7.38608 16.1673 7.52051 16.4072L13.5059 27.0439H13.5068C13.7778 27.5264 13.8505 28.096 13.7109 28.6309C13.5712 29.166 13.2286 29.6283 12.7529 29.915L12.7451 29.9189L11.8027 30.4766C10.3413 31.342 8.60016 31.0583 7.10449 30.2295C5.59278 29.3917 4.16332 27.9228 3.11328 26.0547C2.90704 25.6877 2.72181 25.3155 2.55664 24.9414C2.52699 24.8924 2.50097 24.8403 2.47949 24.7852C2.02737 23.6237 1.41293 21.9682 0.911133 20.29C0.41767 18.6397 3.37057e-05 16.8638 0 15.5C0 6.92527 7.44204 0 15.3281 0ZM5.66699 17.3506L4.72656 17.9053L4.72754 17.9062C4.09736 18.2796 3.62474 19.1354 3.58789 20.4932C3.55175 21.8274 3.95575 23.4716 4.85645 25.0742C5.75714 26.6767 6.94006 27.8509 8.07422 28.4795C9.22459 29.117 10.1632 29.1236 10.7842 28.7559L11.7197 28.2012C11.7445 28.1862 11.7663 28.1607 11.7754 28.126C11.7845 28.0911 11.7793 28.0543 11.7627 28.0244L5.77734 17.3877L5.77539 17.3848C5.76893 17.3733 5.76086 17.3635 5.75195 17.3564C5.74325 17.3497 5.73383 17.3454 5.72461 17.3428C5.71514 17.3402 5.70477 17.3396 5.69531 17.3408C5.68593 17.3421 5.67617 17.3452 5.66699 17.3506ZM24.9346 17.3428C24.9251 17.3454 24.9151 17.3495 24.9062 17.3564C24.8973 17.3635 24.8893 17.3732 24.8828 17.3848L24.8809 17.3877L18.8955 28.0225C18.8786 28.0525 18.8746 28.0899 18.8838 28.125C18.8929 28.1598 18.9137 28.1862 18.9385 28.2012L19.875 28.7549C20.4959 29.1226 21.4332 29.1167 22.583 28.4795C23.7169 27.8509 24.9005 26.6763 25.8027 25.0732C26.0237 24.6806 26.214 24.2851 26.376 23.8926C26.4495 23.6994 26.5285 23.4916 26.6104 23.2715C26.9454 22.2815 27.0941 21.3268 27.0713 20.4932C27.0342 19.1356 26.5619 18.2795 25.9316 17.9062L24.9912 17.3496C24.9821 17.3444 24.9721 17.342 24.9629 17.3408C24.9535 17.3396 24.9439 17.3402 24.9346 17.3428Z" fill="#E6E6E6"/>
</svg>
