<svg width="33" height="33" viewBox="0 0 33 33" fill="none" xmlns="http://www.w3.org/2000/svg">
<path fill-rule="evenodd" clip-rule="evenodd" d="M15.7904 0.930607C16.3279 0.356464 17.1721 0.356464 17.7096 0.930607L28.84 12.8238L32.3183 16.5404C32.8747 17.1348 32.8961 18.1229 32.3661 18.7473C31.8363 19.3716 30.9556 19.3956 30.3991 18.801L29.2717 17.5964V29.378C29.2717 31.1023 28.026 32.5 26.4891 32.5H19.5326H13.9674H7.01087C5.47408 32.5 4.22826 31.1023 4.22826 29.378V17.5964L3.10083 18.801C2.5444 19.3956 1.66374 19.3716 1.13381 18.7473C0.603882 18.1229 0.625361 17.1348 1.18179 16.5404L4.66004 12.8238L15.7904 0.930607ZM7.01087 14.6231V29.378H12.5761V21.5732C12.5761 18.9868 14.4448 16.8902 16.75 16.8902C19.0553 16.8902 20.9239 18.9868 20.9239 21.5732V29.378H26.4891V14.6231L16.75 4.2166L7.01087 14.6231ZM18.1413 29.378V21.5732C18.1413 20.711 17.5184 20.0122 16.75 20.0122C15.9816 20.0122 15.3587 20.711 15.3587 21.5732V29.378H18.1413Z" fill="black"/>
</svg>
