<svg width="29" height="29" viewBox="0 0 29 29" fill="none" xmlns="http://www.w3.org/2000/svg">
<path d="M15.958 0.375C18.6795 0.375 20.8216 0.373064 22.4922 0.597656C24.1916 0.826131 25.553 1.30491 26.624 2.37598H26.623C27.6941 3.44702 28.1739 4.80842 28.4023 6.50781C28.6269 8.17841 28.625 10.3205 28.625 13.042V15.958C28.625 18.6795 28.6269 20.8216 28.4023 22.4922C28.1739 24.1913 27.6948 25.5521 26.624 26.623C25.553 27.6941 24.1916 28.1739 22.4922 28.4023C20.8216 28.6269 18.6795 28.625 15.958 28.625H13.042C10.3205 28.625 8.17841 28.6269 6.50781 28.4023C4.80842 28.1739 3.44702 27.6941 2.37598 26.623V26.624C1.30491 25.553 0.826131 24.1916 0.597656 22.4922C0.373064 20.8216 0.375 18.6795 0.375 15.958V13.042C0.375 10.3205 0.373064 8.17841 0.597656 6.50781C0.826132 4.80843 1.30494 3.44702 2.37598 2.37598C3.44702 1.30494 4.80843 0.826132 6.50781 0.597656C8.17841 0.373064 10.3205 0.375 13.042 0.375H15.958ZM13.042 2.375C10.264 2.375 8.28077 2.37758 6.77441 2.58008C5.29681 2.77874 4.42852 3.15351 3.79102 3.79102C3.15351 4.42852 2.77874 5.29681 2.58008 6.77441C2.37758 8.28077 2.375 10.264 2.375 13.042V15.958C2.375 18.736 2.37758 20.7192 2.58008 22.2256C2.7663 23.6107 3.10676 24.4609 3.67383 25.0869L3.79102 25.209L3.91309 25.3262C4.53917 25.8933 5.38934 26.2337 6.77441 26.4199C8.28076 26.6224 10.264 26.625 13.042 26.625H15.958C18.736 26.625 20.7192 26.6224 22.2256 26.4199C23.7032 26.2213 24.5715 25.8465 25.209 25.209C25.8465 24.5715 26.2213 23.7032 26.4199 22.2256C26.6224 20.7192 26.625 18.736 26.625 15.958V13.042C26.625 10.264 26.6224 8.28076 26.4199 6.77441C26.2213 5.29682 25.8465 4.42852 25.209 3.79102C24.5715 3.15354 23.7032 2.77874 22.2256 2.58008C20.7192 2.37758 18.736 2.375 15.958 2.375H13.042ZM14.5 9.125C17.4685 9.125 19.875 11.5315 19.875 14.5C19.875 17.4685 17.4685 19.875 14.5 19.875C11.5315 19.875 9.125 17.4685 9.125 14.5C9.125 11.5315 11.5315 9.125 14.5 9.125ZM14.5 11.125C12.636 11.125 11.125 12.636 11.125 14.5C11.125 16.364 12.636 17.875 14.5 17.875C16.364 17.875 17.875 16.364 17.875 14.5C17.875 12.636 16.364 11.125 14.5 11.125ZM21.0625 5.75C22.2706 5.75 23.25 6.72938 23.25 7.9375C23.25 9.14562 22.2706 10.125 21.0625 10.125C19.8544 10.125 18.875 9.14562 18.875 7.9375C18.875 6.72938 19.8544 5.75 21.0625 5.75Z" fill="url(#paint0_linear_3255_19899)"/>
<defs>
<linearGradient id="paint0_linear_3255_19899" x1="14.5" y1="0.375" x2="14.5" y2="28.625" gradientUnits="userSpaceOnUse">
<stop stop-color="#5983FF"/>
<stop offset="1" stop-color="#FF00EE"/>
</linearGradient>
</defs>
</svg>
