<svg width="42" height="35" viewBox="0 0 42 35" fill="none" xmlns="http://www.w3.org/2000/svg">
<path d="M9 19.3333H9.02M9 26.6667H9.02M17 19.3333H17.02M25 19.3333H25.02M33 26.6667H33.02M33 19.3333H33.02M29 1V4.66667H13V12M17 26.6667H25M7.4 34H34.6C36.8402 34 37.9604 34 38.816 33.6003C39.5686 33.2489 40.1806 32.6879 40.564 31.998C41 31.2137 41 30.1868 41 28.1333V17.8667C41 15.8131 41 14.7863 40.564 14.002C40.1806 13.3121 39.5686 12.7512 38.816 12.3996C37.9604 12 36.8402 12 34.6 12H7.4C5.15978 12 4.03968 12 3.18404 12.3996C2.43138 12.7512 1.81946 13.3121 1.43598 14.002C1 14.7863 1 15.8131 1 17.8667V28.1333C1 30.1868 1 31.2137 1.43598 31.998C1.81946 32.6879 2.43138 33.2489 3.18404 33.6003C4.03968 34 5.1598 34 7.4 34Z" stroke="#E6E6E6" stroke-width="2" stroke-linecap="round" stroke-linejoin="round"/>
</svg>
