<svg width="31" height="27" viewBox="0 0 31 27" fill="none" xmlns="http://www.w3.org/2000/svg">
<path d="M23.114 0C25.8754 0 28.114 2.09867 28.114 4.6875L28.113 17.6428L30.037 22.45C30.598 23.8524 29.8871 25.4099 28.4446 26.0084L28.2814 26.0709C27.9445 26.1893 27.5877 26.25 27.228 26.25H3C1.34315 26.25 0 24.9908 0 23.4375C0 23.1002 0.0647008 22.7657 0.191012 22.45L2.113 17.6428L2.114 4.6875C2.114 2.16679 4.23631 0.110796 6.89711 0.00433087L7.114 0H23.114ZM26.42 18.75H3.807L2.06367 23.1083C2.0356 23.1785 2.01666 23.2514 2.00715 23.3256L2 23.4375C2 23.9553 2.44772 24.375 3 24.375H27.228C27.3479 24.375 27.4668 24.3548 27.5791 24.3153C28.0962 24.1335 28.3582 23.5931 28.1643 23.1083L26.42 18.75ZM23.114 1.875H7.114C5.45714 1.875 4.114 3.1342 4.114 4.6875V16.875H26.114V4.6875C26.114 3.18967 24.8651 1.96532 23.2903 1.87977L23.114 1.875Z" fill="#E6E6E6"/>
</svg>
