<svg width="36" height="46" viewBox="0 0 36 46" fill="none" xmlns="http://www.w3.org/2000/svg">
<path d="M17.8125 0C27.7809 0 35.625 8.50705 35.625 18.7002C35.6249 23.9229 33.3819 28.4891 30.3613 32.6387C27.3682 36.7504 23.3775 40.752 19.6289 44.7178C19.1567 45.2171 18.4998 45.5 17.8125 45.5C17.1252 45.5 16.4683 45.2171 15.9961 44.7178C12.2475 40.752 8.25675 36.7504 5.26367 32.6387C2.2431 28.4891 5.60458e-05 23.9229 0 18.7002C0 8.50705 7.84409 0 17.8125 0ZM17.8125 5C10.8672 5 5 10.9993 5 18.7002C5.00006 22.4242 6.58521 25.9578 9.30664 29.6963C11.625 32.881 14.595 35.9944 17.8125 39.3711C21.03 35.9944 24 32.881 26.3184 29.6963C29.0398 25.9578 30.6249 22.4242 30.625 18.7002C30.625 10.9993 24.7578 5 17.8125 5ZM17.8125 11.25C21.6755 11.25 24.6875 14.4509 24.6875 18.25C24.6875 22.0492 21.6754 25.25 17.8125 25.25C13.9496 25.25 10.9375 22.0492 10.9375 18.25C10.9375 14.4509 13.9495 11.25 17.8125 11.25ZM17.8125 16.25C16.8428 16.25 15.9375 17.0785 15.9375 18.25C15.9375 19.4215 16.8428 20.25 17.8125 20.25C18.7822 20.25 19.6875 19.4215 19.6875 18.25C19.6875 17.0785 18.7822 16.25 17.8125 16.25Z" fill="white"/>
</svg>
