<svg width="58" height="54" viewBox="0 0 58 54" fill="none" xmlns="http://www.w3.org/2000/svg">
<path d="M23.5086 0.0860613C23.3838 0.13822 23.1797 0.284262 23.055 0.409442C22.8509 0.618076 22.8282 0.816278 22.7942 2.44362L22.7602 4.2483L21.0933 4.74902C20.1182 5.04111 18.7461 5.56269 17.7937 6.01125L16.1495 6.76233L14.7661 5.52096C13.4281 4.31089 13.3601 4.26916 12.8952 4.26916H12.4076L8.62033 7.73248C6.53393 9.64148 4.76504 11.3418 4.68567 11.5087C4.43621 12.0408 4.65165 12.3641 6.04636 13.6577L7.35035 14.8573L6.62465 16.1613C5.87627 17.5174 5.26396 18.9152 4.85575 20.1983L4.61763 20.9598H2.83739C0.887064 20.9598 0.410833 21.0746 0.127356 21.5857C0.0139649 21.7839 -0.00872432 22.9732 0.00261478 26.8224L0.0366376 31.8088L0.354138 32.0904L0.660288 32.3825L2.63329 32.4138L4.61763 32.4555L4.85575 33.1962C5.36601 34.7922 6.42054 37.0663 7.14624 38.1512L7.38438 38.5059L6.05769 39.7264C4.76504 40.9156 4.51559 41.2807 4.6063 41.771C4.61764 41.8858 6.36386 43.5861 8.46159 45.5577L12.2829 49.1254H12.8271C13.1976 49.1254 13.8401 48.7116 14.7548 47.884L16.1382 46.6322L17.8277 47.4041C18.7915 47.8527 20.1975 48.3847 21.1387 48.6664L22.7602 49.1462L22.7942 50.9613L22.8282 52.7764L23.1457 53.0581L23.4519 53.3502H29.4616L29.7677 53.0581L30.0852 52.7764L30.1193 47.5606L30.1533 42.3448H41.4243L43.0912 45.1509L44.7694 47.957L44.5313 48.4473C43.8849 49.8034 44.2591 51.3995 45.4837 52.4322C46.1301 52.9747 46.4816 53.1416 47.3547 53.3085C47.9216 53.4232 48.1938 53.4232 48.7607 53.3085C49.6338 53.1416 49.9853 52.9747 50.6317 52.4322C51.6522 51.5664 52.0831 50.398 51.811 49.1984C51.6409 48.3951 51.2893 47.8318 50.6317 47.279C49.9853 46.7365 49.6338 46.5696 48.7607 46.4027C48.1938 46.2984 47.933 46.2984 47.3207 46.4027C46.9125 46.4757 46.5383 46.5174 46.5043 46.4757C46.4589 46.4444 45.6538 45.1092 44.7013 43.5131C43.4427 41.4164 42.8871 40.5714 42.649 40.4462C42.3541 40.2793 41.8325 40.2584 36.2424 40.2584H30.1533L30.1193 38.6415C30.0852 37.0559 30.0852 37.0246 29.7791 36.7534C29.5183 36.503 29.3595 36.4613 28.3617 36.3883C23.69 36.0232 20.0161 33.2379 18.7802 29.1174C18.4287 27.9595 18.4287 25.435 18.7802 24.2771C19.812 20.8242 22.6468 18.2267 26.4114 17.2879C27.6247 16.9854 30.0852 16.9645 31.3212 17.2357C34.5528 17.9764 37.1495 19.9167 38.5896 22.6811C38.8617 23.2131 39.2019 23.7242 39.3493 23.8181C40.041 24.2667 41.0275 23.766 41.0275 22.9732C41.0275 22.2638 39.9502 20.4383 38.6689 18.9883L38.2834 18.5606H43.352C46.8331 18.5606 48.4886 18.5293 48.6587 18.4458C48.7948 18.3832 49.6792 17.6217 50.6317 16.7559L52.3552 15.1807L52.9335 15.3685C53.7386 15.6397 55.0539 15.5667 55.825 15.2224C56.5734 14.8886 57.3104 14.1897 57.6733 13.4699C58.1042 12.6145 58.1041 11.4566 57.6619 10.5803C56.562 8.41054 53.4665 7.8368 51.5842 9.46414C50.4956 10.4134 50.0761 11.8426 50.5296 13.0839L50.7677 13.7098L49.271 15.0868L47.7742 16.4742H35.3919L34.4395 16.0674C33.3169 15.5771 31.8088 15.1598 30.8336 15.0555L30.1419 14.9825V13.0318H36.3104C42.2861 13.0318 42.4789 13.0213 42.7624 12.8231C42.9098 12.7084 43.8169 11.321 44.7694 9.74579C45.7105 8.17061 46.5383 6.87708 46.6176 6.87708C46.6857 6.87708 47.0372 6.92924 47.4 7.00226C47.9216 7.10658 48.2051 7.09615 48.7607 6.99183C49.6338 6.82492 49.9853 6.65802 50.6317 6.11557C51.6522 5.24974 52.0831 4.08139 51.811 2.88175C51.6409 2.07851 51.2893 1.5152 50.6317 0.962321C49.9853 0.419874 49.6338 0.252968 48.7607 0.0860613C48.1938 -0.0286871 47.9216 -0.0286871 47.3547 0.0860613C46.4816 0.252968 46.1301 0.419874 45.4837 0.962321C44.2591 1.99506 43.8849 3.5911 44.5313 4.94722L44.7694 5.43751L43.1139 8.19147L41.4584 10.9454H30.1533L30.1193 5.78175L30.0852 0.618076L29.7677 0.336421L29.4616 0.0443337L26.5928 0.0234706C25.028 0.013039 23.6333 0.0443346 23.5086 0.0860613ZM27.8514 8.51485L27.8174 14.9616L27.1371 15.0347C24.6765 15.3163 22.0345 16.5264 20.0615 18.2789C15.5032 22.3473 14.9135 28.9609 18.6894 33.6865C19.3131 34.4584 20.7418 35.7624 21.5809 36.3153C22.987 37.2333 24.9713 38.0052 26.6268 38.2764C27.035 38.339 27.4773 38.412 27.6247 38.4433L27.8741 38.4851V51.316H25.0393V47.9779L24.7332 47.6649C24.4724 47.4041 24.1889 47.2894 23.1684 47.039C21.0026 46.5174 19.1884 45.8185 17.136 44.7023C15.8207 43.993 15.7299 44.0243 14.1085 45.4743L12.8385 46.6113L10.0717 44.066L7.29366 41.5102L8.59765 40.3106C10.1965 38.8293 10.2078 38.8189 9.26666 37.3376C8.16677 35.6163 7.3617 33.8012 6.77206 31.7253C6.59064 31.0577 6.45457 30.8073 6.19377 30.6091C5.86494 30.3588 5.80824 30.3483 4.05068 30.3483H2.24776V23.0462H4.10738C5.93297 23.0462 5.96699 23.0462 6.25047 22.7854C6.44323 22.608 6.61332 22.2325 6.77206 21.6588C7.35036 19.6246 8.25748 17.6113 9.40273 15.8379C10.1965 14.6174 10.1624 14.5339 8.59765 13.0839L7.29366 11.8843L10.0717 9.32852L12.8498 6.77276L13.9837 7.8055C15.7526 9.41198 15.7866 9.42241 17.1587 8.69219C19.3585 7.53428 20.9799 6.89794 23.1571 6.3555C24.4497 6.03212 24.7445 5.90694 24.9146 5.55226C24.9826 5.40622 25.0393 4.61341 25.0393 3.69542V2.07851H27.8741L27.8514 8.51485ZM48.8628 2.31844C49.8833 2.94434 49.8606 4.20657 48.8174 4.79075C48.1031 5.19758 47.1619 4.94722 46.697 4.2483C45.8693 3.00693 47.5475 1.50477 48.8628 2.31844ZM55.0426 10.8307C55.4281 11.0497 55.7683 11.6131 55.7683 12.0408C55.7683 12.4685 55.4395 13.0109 55.0313 13.2404C54.5663 13.5116 53.7839 13.5116 53.319 13.2508C52.9335 13.0318 52.5933 12.4685 52.5933 12.0408C52.5933 11.6131 52.9335 11.0497 53.319 10.8307C53.7726 10.5699 54.589 10.5699 55.0426 10.8307ZM48.8628 48.6351C49.8833 49.261 49.8606 50.5232 48.8174 51.1074C48.1031 51.5142 47.1619 51.2639 46.697 50.5649C45.8693 49.3236 47.5475 47.8214 48.8628 48.6351Z" fill="#FF7B00"/>
<path d="M22.3199 11.5082C22.1044 11.5812 21.4921 11.842 20.9705 12.0924C15.3803 14.669 11.6044 19.9579 11.2416 25.6744C11.1622 26.9575 11.2756 27.3435 11.8085 27.5938C12.2394 27.8025 12.795 27.7086 13.1352 27.3748C13.362 27.1453 13.4073 26.9575 13.4867 25.9665C13.6114 24.4748 13.7475 23.7446 14.1671 22.4823C15.2216 19.3111 17.3987 16.6093 20.3355 14.8359C20.7664 14.5647 21.7189 14.0848 22.4446 13.751C23.5105 13.2607 23.7939 13.0834 23.9073 12.833C24.3042 11.9463 23.3517 11.1431 22.3199 11.5082Z" fill="#3385FF"/>
<path d="M27.4776 18.9181C23.1574 19.6796 20.1752 23.1638 20.4247 27.1696C20.7989 33.1782 27.9312 36.5685 33.5667 33.4182C34.4398 32.9279 35.6191 31.8638 36.2087 31.0293C37.0592 29.8297 37.7735 27.5138 37.5808 26.5646C37.4107 25.7196 36.3108 25.4066 35.7098 26.0325C35.449 26.2933 35.381 26.4915 35.3243 27.0861C35.0068 30.2052 32.3081 32.5419 29.0084 32.5419C26.7179 32.5419 24.4841 31.3005 23.4296 29.4541C21.2751 25.6779 23.9172 21.2966 28.5889 20.8897C29.6321 20.8063 30.0856 20.4829 30.0856 19.8257C30.0856 18.9181 29.2125 18.6156 27.4776 18.9181Z" fill="#3385FF"/>
<path d="M53.2733 23.2877C52.9899 23.3607 52.5703 23.5068 52.3322 23.6111C51.7992 23.851 50.8354 24.8107 50.6653 25.2802L50.5406 25.6453L48.6243 25.6766C46.7987 25.7079 46.708 25.7183 46.4245 25.9582C46.073 26.2712 45.9483 26.7197 46.1297 27.1266C46.3792 27.6586 46.708 27.742 48.7037 27.742H50.4953L50.6994 28.201C50.9715 28.8165 51.8333 29.5989 52.593 29.9223C53.4888 30.3082 54.8721 30.3082 55.7679 29.9223C58.2512 28.8478 58.7728 25.8748 56.7771 24.1223C55.938 23.392 54.3392 23.0061 53.2733 23.2877ZM55.0762 25.5201C55.4504 25.7705 55.7679 26.3442 55.7679 26.751C55.7679 27.1579 55.4051 27.6899 54.9515 27.9507C53.897 28.5349 52.5023 27.7316 52.627 26.605C52.7517 25.4888 54.1238 24.8838 55.0762 25.5201Z" fill="#3385FF"/>
<path d="M40.0518 25.8401C39.5529 26.2052 39.4281 26.6955 39.7116 27.2067C40.1311 27.9369 41.2651 27.8952 41.6619 27.1336C42.0248 26.4243 41.5032 25.6523 40.6641 25.6523C40.46 25.6523 40.1765 25.7358 40.0518 25.8401Z" fill="#3385FF"/>
<path d="M34.7669 34.9977C34.3814 35.1855 34.2227 35.4463 34.2227 35.9053C34.2227 36.6564 35.0618 37.1154 35.7875 36.7711C36.207 36.5729 36.3771 36.3121 36.3771 35.874C36.3771 35.4358 36.207 35.1751 35.8101 34.9873C35.4019 34.7891 35.1638 34.7995 34.7669 34.9977Z" fill="#3385FF"/>
<path d="M39.4193 35.0028C39.0338 35.1906 38.875 35.4514 38.875 35.8791C38.875 36.3068 39.0451 36.578 39.442 36.7658C39.7141 36.9014 40.4285 36.9223 43.7735 36.9223H47.7762L49.2729 38.2993L50.7697 39.6867L50.5316 40.3126C50.2141 41.168 50.2935 42.0234 50.7697 42.9205C52.1871 45.5701 56.3032 45.5075 57.6639 42.8162C58.1061 41.9399 58.1061 40.782 57.6752 39.9266C57.3124 39.2068 56.5753 38.5079 55.8269 38.1741C55.0559 37.8298 53.7406 37.7568 52.9355 38.028L52.3572 38.2158L50.6336 36.6406C49.6812 35.7748 48.7967 35.0133 48.6606 34.9507C48.4906 34.8777 47.0278 34.8359 44.0683 34.8359C40.4625 34.8464 39.6687 34.8672 39.4193 35.0028ZM55.0332 40.1561C55.2373 40.2708 55.4868 40.5316 55.5888 40.7194C56.2465 41.9921 54.7837 43.2752 53.4117 42.618C52.4025 42.1381 52.3459 40.7298 53.3097 40.1665C53.7859 39.8849 54.557 39.8849 55.0332 40.1561Z" fill="#3385FF"/>
</svg>
