<svg width="45" height="48" viewBox="0 0 45 48" fill="none" xmlns="http://www.w3.org/2000/svg">
<path d="M33.5431 47.6438C31.7668 47.6468 29.9905 47.6498 28.1603 47.6529C26.2929 47.6439 24.4255 47.6349 22.5015 47.6256C19.7003 47.6391 19.7003 47.6391 16.8426 47.6529C15.0663 47.6499 13.29 47.6469 11.4598 47.6438C9.82011 47.6412 8.18043 47.6385 6.49105 47.6358C2.62647 47.3339 2.62647 47.3339 0.418133 45.0006C0.200894 41.8962 0.129315 38.7801 0.12484 35.6672C0.12057 32.8519 0.120567 32.8519 0.116211 29.9797C0.124751 28.0066 0.133291 26.0335 0.14209 24.0006C0.12928 21.0409 0.12928 21.0409 0.116211 18.0214C0.119058 16.1445 0.121907 14.2677 0.12484 12.3339C0.127331 10.6014 0.129819 8.86891 0.132385 7.08391C0.418132 3.00058 0.418132 3.00057 2.62646 0.66724C5.56451 0.437705 8.51374 0.362074 11.4598 0.357346C13.2361 0.354338 15.0125 0.351331 16.8426 0.348232C18.71 0.357256 20.5775 0.366279 22.5015 0.375576C24.3689 0.366553 26.2363 0.357529 28.1603 0.348232C29.9366 0.35124 31.713 0.354247 33.5431 0.357346C35.1828 0.359977 36.8225 0.362611 38.5119 0.365322C42.3765 0.667243 42.3765 0.667243 44.5848 3.00058C44.802 6.10493 44.8736 9.22109 44.8781 12.3339C44.8809 14.2108 44.8838 16.0877 44.8867 18.0214C44.8782 19.9945 44.8696 21.9677 44.8608 24.0006C44.8694 25.9737 44.8779 27.9468 44.8867 29.9797C44.8839 31.8566 44.881 33.7335 44.8781 35.6672C44.8756 37.3997 44.8731 39.1322 44.8705 40.9172C44.3133 48.8808 40.0503 47.6334 33.5431 47.6438ZM40.1681 42.6672C40.1681 30.3472 40.1681 18.0272 40.1681 5.33391C32.8806 5.33391 25.5931 5.33391 18.0848 5.33391C18.0848 17.6539 18.0848 29.9739 18.0848 42.6672C25.3723 42.6672 32.6598 42.6672 40.1681 42.6672ZM13.6681 42.6672C13.6681 37.2772 13.6681 10.8872 13.6681 5.33391C10.7531 5.33391 7.83813 5.33391 4.8348 5.33391C4.8348 10.7239 4.8348 37.1139 4.8348 42.6672C7.7498 42.6672 10.6648 42.6672 13.6681 42.6672Z" fill="#FF7B00"/>
</svg>
