<svg width="33" height="26" viewBox="0 0 33 26" fill="none" xmlns="http://www.w3.org/2000/svg">
<path d="M27.8438 0C30.6915 0 33 2.09867 33 4.6875V15.9375C33 18.5263 30.6915 20.625 27.8438 20.625H20.625V23.4375H23.7188C24.2883 23.4375 24.75 23.8572 24.75 24.375C24.75 24.8928 24.2883 25.3125 23.7188 25.3125H9.28125C8.71171 25.3125 8.25 24.8928 8.25 24.375C8.25 23.8572 8.71171 23.4375 9.28125 23.4375H12.375V20.625H5.15625C2.38347 20.625 0.121875 18.6353 0.00476387 16.1408L0 15.9375V4.6875C0 2.09867 2.30853 0 5.15625 0H27.8438ZM18.5625 23.4375V20.625H14.4375V23.4375H18.5625ZM27.8438 1.875H5.15625C3.44762 1.875 2.0625 3.1342 2.0625 4.6875V15.9375C2.0625 17.4908 3.44762 18.75 5.15625 18.75H27.8438C29.5524 18.75 30.9375 17.4908 30.9375 15.9375V4.6875C30.9375 3.1342 29.5524 1.875 27.8438 1.875Z" fill="#E6E6E6"/>
</svg>
