<svg width="40" height="37" viewBox="0 0 40 37" fill="none" xmlns="http://www.w3.org/2000/svg">
<path fill-rule="evenodd" clip-rule="evenodd" d="M33.1251 33.3H6.87635C5.46356 33.3 4.4203 32.0105 4.95316 30.8247C7.42553 25.3413 13.2339 22.2 19.9997 22.2C26.7676 22.2 32.5759 25.3413 35.0483 30.8247C35.5811 32.0105 34.5379 33.3 33.1251 33.3ZM11.8333 11.1C11.8333 7.01888 15.498 3.69997 19.9997 3.69997C24.5035 3.69997 28.1661 7.01888 28.1661 11.1C28.1661 15.1811 24.5035 18.5 19.9997 18.5C15.498 18.5 11.8333 15.1811 11.8333 11.1ZM39.9113 32.6266C38.4271 26.4124 33.7845 21.8262 27.674 19.745C30.912 17.3825 32.8005 13.5622 32.1063 9.37938C31.302 4.52683 26.8472 0.643758 21.4697 0.0776572C14.0464 -0.704893 7.75014 4.53063 7.75014 11.1C7.75014 14.5965 9.53858 17.7118 12.3274 19.745C6.21487 21.8262 1.57433 26.4124 0.088048 32.6266C-0.450932 34.8854 1.558 37 4.10794 37H35.8914C38.4434 37 40.4524 34.8854 39.9113 32.6266Z" fill="white"/>
</svg>
