<svg width="22" height="22" viewBox="0 0 22 22" fill="none" xmlns="http://www.w3.org/2000/svg">
<path d="M1 3.77778C1 13.2893 8.71066 21 18.2222 21C18.6513 21 19.0768 20.9843 19.4981 20.9534C19.9816 20.918 20.2232 20.9003 20.4433 20.7737C20.6256 20.6688 20.7983 20.4828 20.8897 20.2933C21 20.0647 21 19.7979 21 19.2644V16.1341C21 15.6854 21 15.4611 20.9261 15.2689C20.861 15.099 20.755 14.9478 20.6177 14.8284C20.4622 14.6933 20.2513 14.6167 19.8298 14.4633L16.2667 13.1677C15.7761 12.9893 15.5308 12.9001 15.2981 12.9152C15.0929 12.9286 14.8954 12.9987 14.7277 13.1176C14.5374 13.2523 14.4032 13.4761 14.1347 13.9238L13.2222 15.4444C10.2779 14.111 7.891 11.721 6.55556 8.77778L8.07626 7.86536C8.52383 7.59681 8.74762 7.46253 8.88244 7.27229C9.00133 7.10453 9.07145 6.90708 9.08478 6.70189C9.09989 6.46919 9.01067 6.22392 8.83233 5.73339L7.53666 2.17023C7.38333 1.74862 7.30668 1.53781 7.17158 1.38233C7.05223 1.24499 6.90099 1.13906 6.73113 1.07383C6.53884 1 6.31453 1 5.86591 1H2.73557C2.20209 1 1.93534 1 1.70664 1.11028C1.51722 1.20162 1.33127 1.37446 1.22633 1.5567C1.09964 1.77674 1.08194 2.01847 1.04654 2.50192C1.0157 2.92318 1 3.34864 1 3.77778Z" stroke="white" stroke-width="2" stroke-linecap="round" stroke-linejoin="round"/>
</svg>
