<svg width="43" height="45" viewBox="0 0 43 45" fill="none" xmlns="http://www.w3.org/2000/svg">
<path d="M40.3163 20.67C40.3163 30.7559 32.6583 40.2024 22.1959 42.9662C21.484 43.1519 20.7074 43.1519 19.9955 42.9662C9.53303 40.2024 1.875 30.7559 1.875 20.67V11.6153C1.875 9.92404 3.21248 8.00588 4.87353 7.36649L16.8892 2.66393C19.5857 1.61202 22.6273 1.61202 25.3238 2.66393L37.3394 7.36649C38.9789 8.00588 40.3379 9.92404 40.3379 11.6153L40.3163 20.67Z" stroke="white" stroke-width="3.75" stroke-linecap="round" stroke-linejoin="round"/>
<path d="M21.0956 23.5158C23.4785 23.5158 25.41 21.669 25.41 19.3907C25.41 17.1125 23.4785 15.2656 21.0956 15.2656C18.7128 15.2656 16.7812 17.1125 16.7812 19.3907C16.7812 21.669 18.7128 23.5158 21.0956 23.5158Z" stroke="white" stroke-width="3.75" stroke-miterlimit="10" stroke-linecap="round" stroke-linejoin="round"/>
<path d="M21.0977 23.5156V29.7033" stroke="white" stroke-width="3.75" stroke-miterlimit="10" stroke-linecap="round" stroke-linejoin="round"/>
</svg>
