<svg width="33" height="33" viewBox="0 0 33 33" fill="none" xmlns="http://www.w3.org/2000/svg">
<path d="M4.74316 4.7959C11.0667 -1.59866 21.3191 -1.59888 27.6426 4.7959C33.966 11.1908 33.966 21.5592 27.6426 27.9541C21.3191 34.3489 11.0667 34.3487 4.74316 27.9541C-1.58039 21.5592 -1.58039 11.1908 4.74316 4.7959ZM20.2705 22.5869C17.8252 24.2313 14.6244 24.2432 12.1689 22.6211L7.99023 26.8467C12.7982 30.708 19.6493 30.6942 24.4434 26.8066L20.2705 22.5869ZM5.87598 8.03027C2.01898 12.8946 2.01933 19.8542 5.87598 24.7188L10.0508 20.4961C8.41459 18.0067 8.41427 14.7422 10.0508 12.2529L5.87598 8.03027ZM22.3711 12.3037C23.9642 14.7698 23.9639 17.9791 22.3711 20.4453L26.5479 24.668C30.3518 19.8226 30.3521 12.9262 26.5479 8.08105L22.3711 12.3037ZM19.2988 13.2373C17.585 11.5041 14.8058 11.5034 13.0918 13.2363C11.3779 14.9696 11.3779 17.7804 13.0918 19.5137C14.8058 21.2466 17.585 21.2459 19.2988 19.5127C21.0119 17.7796 21.012 14.9704 19.2988 13.2373ZM24.4434 5.94238C19.6495 2.05534 12.798 2.0416 7.99023 5.90234L12.1699 10.1279C14.6251 8.5067 17.8257 8.51831 20.2705 10.1621L24.4434 5.94238Z" fill="black"/>
</svg>
