<svg width="37" height="33" viewBox="0 0 37 33" fill="none" xmlns="http://www.w3.org/2000/svg">
<path d="M32.375 0C34.9293 0 37 1.95875 37 4.375V13.125C37 15.5412 34.9293 17.5 32.375 17.5L30.0625 17.4989V31.7188C30.0625 32.3228 29.5448 32.8125 28.9062 32.8125C28.2677 32.8125 27.75 32.3228 27.75 31.7188V17.4989H9.25V31.7188C9.25 32.3228 8.73233 32.8125 8.09375 32.8125C7.45517 32.8125 6.9375 32.3228 6.9375 31.7188V17.4989L4.625 17.5C2.14809 17.5 0.12594 15.6582 0.0056602 13.3434L0 13.125V4.375C0 1.95875 2.07068 0 4.625 0H32.375ZM32.375 2.1875H4.625C3.34784 2.1875 2.3125 3.16688 2.3125 4.375V13.125C2.3125 14.3331 3.34784 15.3125 4.625 15.3125H32.375C33.6522 15.3125 34.6875 14.3331 34.6875 13.125V4.375C34.6875 3.16688 33.6522 2.1875 32.375 2.1875Z" fill="#E6E6E6"/>
</svg>
