<svg width="35" height="35" viewBox="0 0 35 35" fill="none" xmlns="http://www.w3.org/2000/svg">
<path d="M17.043 9.06163e-07C18.2998 8.46631e-07 19.3267 -0.000966346 20.1592 0.0625009C21.0065 0.127111 21.7796 0.26496 22.5059 0.610352C23.6387 1.14918 24.5796 2.01891 25.1758 3.11133C25.5642 3.82305 25.7179 4.5809 25.7891 5.39356C25.816 5.70153 25.83 6.03689 25.8398 6.40039H28.0146C28.9513 6.40039 29.738 6.39932 30.3799 6.44824C31.0366 6.49832 31.6685 6.60732 32.2725 6.89453C33.1902 7.3311 33.9566 8.03709 34.4434 8.92871H34.4424C34.7687 9.52639 34.8917 10.1522 34.9473 10.7871C35.001 11.4012 35 12.1501 35 13.0195V29.2334C35 32.4115 32.356 34.8442 29.2324 34.9932L28.9287 35H8.81445C7.55746 35 6.52985 35.001 5.69727 34.9375C4.85016 34.8729 4.07768 34.735 3.35156 34.3896C2.21853 33.8509 1.27788 32.9816 0.681641 31.8896C0.292994 31.1778 0.139515 30.4193 0.0683601 29.6064C-0.000971356 28.8144 7.31084e-07 27.8411 7.31084e-07 26.6729V8.32715C7.30553e-07 7.15888 -0.000974929 6.18559 0.0683601 5.39356C0.139505 4.58085 0.293158 3.82309 0.681641 3.11133C1.27793 2.01902 2.21852 1.14921 3.35156 0.610352C4.07768 0.265037 4.85016 0.127127 5.69727 0.0625009C6.52984 -0.000989337 7.55745 9.05788e-07 8.81445 9.06163e-07H17.043ZM8.81445 3C7.51121 3 6.61779 3.00094 5.92578 3.05371C5.24888 3.10533 4.89223 3.19977 4.64063 3.31934C4.05341 3.59858 3.59465 4.03554 3.31445 4.54883C3.20493 4.74964 3.11001 5.04566 3.05664 5.65527C3.00142 6.28617 3 7.10596 3 8.32715V26.6729C3 27.894 3.00143 28.7138 3.05664 29.3447C3.11001 29.9544 3.20495 30.2504 3.31445 30.4512C3.59466 30.9644 4.05269 31.4015 4.63965 31.6807H4.64063C4.89222 31.8002 5.24888 31.8947 5.92578 31.9463C6.61779 31.9991 7.51122 32 8.81445 32H23.5967C23.1277 31.1872 22.8574 30.2485 22.8574 29.2334V8.32715C22.8574 7.10596 22.856 6.28616 22.8008 5.65527C22.7474 5.04536 22.6516 4.74964 22.542 4.54883V4.54785C22.2619 4.03489 21.8039 3.59854 21.2168 3.31934C20.9653 3.19975 20.6086 3.10535 19.9316 3.05371C19.2396 3.00094 18.3461 3 17.043 3H8.81445ZM25.8574 29.2334C25.8575 30.6656 27.1332 32 28.9287 32C30.7241 31.9999 32 30.6656 32 29.2334V13.0195C32 12.0972 31.9986 11.5018 31.959 11.0488C31.9212 10.6169 31.8569 10.453 31.8096 10.3662C31.639 10.0537 31.3556 9.78054 30.9834 9.60352C30.8539 9.542 30.6385 9.47654 30.1523 9.43945C29.651 9.40122 28.9977 9.40039 28.0146 9.40039H25.8574V29.2334ZM15.2129 27.7324C16.0413 27.7324 16.7129 28.404 16.7129 29.2324C16.7129 30.0608 16.0413 30.7324 15.2129 30.7324H6.07031C5.24189 30.7324 4.57031 30.0608 4.57031 29.2324C4.57031 28.404 5.24189 27.7324 6.07031 27.7324H15.2129ZM19.7842 23.4668C20.6126 23.4668 21.2842 24.1384 21.2842 24.9668C21.2842 25.7952 20.6126 26.4668 19.7842 26.4668H6.07031C5.24189 26.4668 4.57031 25.7952 4.57031 24.9668C4.57031 24.1384 5.24189 23.4668 6.07031 23.4668H19.7842ZM19.7842 19.1992C20.6126 19.1992 21.2842 19.8708 21.2842 20.6992C21.2842 21.5276 20.6126 22.1992 19.7842 22.1992H6.07031C5.24189 22.1992 4.57031 21.5276 4.57031 20.6992C4.57031 19.8708 5.24189 19.1992 6.07031 19.1992H19.7842ZM19.7842 14.9336C20.6126 14.9336 21.2842 15.6052 21.2842 16.4336C21.2842 17.262 20.6126 17.9336 19.7842 17.9336H6.07031C5.24189 17.9336 4.57031 17.262 4.57031 16.4336C4.57031 15.6052 5.24189 14.9336 6.07031 14.9336H19.7842ZM16.3564 4.26758C16.8696 4.26758 17.3247 4.26698 17.7021 4.29102C18.0911 4.3158 18.5009 4.37158 18.9141 4.53125C19.8237 4.88296 20.5795 5.57033 20.9814 6.47559V6.47656C21.1673 6.89554 21.231 7.31098 21.2588 7.69141C21.2854 8.05617 21.2842 8.49292 21.2842 8.96777C21.2842 9.44272 21.2854 9.87935 21.2588 10.2441C21.2345 10.577 21.1829 10.9364 21.0459 11.3018L20.9814 11.459C20.6047 12.3079 19.9172 12.9653 19.083 13.334L18.9141 13.4043C18.5009 13.5639 18.0911 13.6198 17.7021 13.6445C17.3247 13.6686 16.8696 13.668 16.3564 13.668H9.49902C8.98587 13.668 8.53073 13.6685 8.15332 13.6445C7.76421 13.6198 7.35373 13.5641 6.94043 13.4043C6.03046 13.0525 5.27489 12.3645 4.87305 11.459C4.68712 11.04 4.62352 10.6246 4.5957 10.2441C4.56904 9.87935 4.57031 9.44269 4.57031 8.96777C4.57031 8.49296 4.56907 8.05617 4.5957 7.69141C4.62352 7.31089 4.68706 6.89467 4.87305 6.47559C5.2749 5.57031 6.03063 4.88301 6.94043 4.53125C7.35373 4.37147 7.76421 4.3158 8.15332 4.29102C8.53074 4.267 8.98586 4.26758 9.49902 4.26758H16.3564ZM9.49902 7.26758C8.94747 7.26758 8.60375 7.26861 8.34375 7.28516C8.09759 7.30083 8.03022 7.32611 8.02246 7.3291C7.81231 7.41034 7.67735 7.5534 7.61524 7.69336C7.62723 7.66632 7.60357 7.69566 7.58789 7.91016C7.5711 8.14026 7.57031 8.44916 7.57031 8.96777C7.57031 9.48656 7.57108 9.79528 7.58789 10.0254C7.60357 10.2399 7.62723 10.2692 7.61524 10.2422C7.67735 10.3821 7.8123 10.5252 8.02246 10.6064C8.03082 10.6097 8.09892 10.6348 8.34375 10.6504C8.60375 10.6669 8.94748 10.668 9.49902 10.668H16.3564C16.9078 10.668 17.2517 10.6669 17.5117 10.6504C17.7598 10.6346 17.8262 10.6091 17.833 10.6064C18.043 10.5252 18.1771 10.3821 18.2393 10.2422L18.2432 10.2246C18.2495 10.1939 18.2588 10.1327 18.2666 10.0254C18.2834 9.79526 18.2842 9.48656 18.2842 8.96777C18.2842 8.4488 18.2834 8.13935 18.2666 7.90918C18.2569 7.77634 18.2447 7.71458 18.2393 7.69336L18.1797 7.58887C18.1058 7.48578 17.9907 7.39012 17.833 7.3291C17.8262 7.32647 17.7598 7.30098 17.5117 7.28516C17.2517 7.2686 16.9078 7.26758 16.3564 7.26758H9.49902Z" fill="black"/>
</svg>
