<svg width="60" height="36" viewBox="0 0 60 36" fill="none" xmlns="http://www.w3.org/2000/svg">
<path d="M39.8066 0C40.9686 0.00626803 42.0701 0.459365 42.8721 1.24414C43.6702 2.02487 44.108 3.07003 44.1035 4.14941V4.2627H50.6865C52.6359 4.25404 54.4944 5.01709 55.832 6.35938C57.1199 7.65174 57.8161 9.37261 57.793 11.1445L58.7256 16.1992C58.7447 16.2744 58.7604 16.351 58.7686 16.4297L59.9727 22.9521C59.9886 23.0386 59.9973 23.126 59.999 23.2139C60.0605 26.5125 57.6922 29.3655 54.415 30.0879C53.6582 32.9947 50.931 35.0675 47.7998 35.0264H47.7988C44.7935 34.9862 42.2141 33.0094 41.4141 30.2637H30.5371C29.7181 33.0782 27.0358 35.0667 23.9678 35.0264H23.9668C20.9608 34.9862 18.3805 33.0085 17.5811 30.2617H17.2695L17.2783 28.5586V28.3584L17.2695 30.2617C16.1086 30.2565 15.0068 29.8048 14.2041 29.0215C13.4029 28.2399 12.9636 27.1917 12.9688 26.1094V4.14453C12.9657 3.06483 13.4048 2.01911 14.2041 1.23926C15.0068 0.456202 16.1087 0.00522264 17.2695 0H39.8066ZM24.0479 25.3525C22.3005 25.3578 20.9526 26.636 20.7998 28.1689C20.8309 28.2941 20.8496 28.4245 20.8496 28.5586C20.8496 28.6682 20.8365 28.775 20.8154 28.8789C21.0268 30.3403 22.326 31.5417 24.0127 31.5645C25.716 31.587 27.0585 30.397 27.2939 28.9219C27.2672 28.8054 27.2529 28.6846 27.2529 28.5605C27.2529 28.418 27.2726 28.2798 27.3076 28.1475C27.2251 27.4707 26.9142 26.8264 26.4023 26.3213V26.3203C25.7916 25.7177 24.9457 25.3632 24.0479 25.3525ZM47.8799 25.3525C46.153 25.3577 44.8163 26.6062 44.6377 28.1152C44.6785 28.2574 44.7031 28.4063 44.7031 28.5605C44.7031 28.6896 44.6851 28.8147 44.6562 28.9355C44.8926 30.3712 46.1799 31.5421 47.8447 31.5645C49.5612 31.5871 50.9119 30.3786 51.1318 28.8877C51.1124 28.7935 51.099 28.6968 51.0967 28.5977C51.0934 28.4544 51.1113 28.3152 51.1436 28.1816C51.0675 27.4924 50.7549 26.8349 50.2344 26.3213V26.3203C49.6236 25.7177 48.7777 25.3632 47.8799 25.3525ZM17.2861 3.40625C17.1138 3.40711 16.9394 3.47412 16.8037 3.60645C16.6665 3.74033 16.5821 3.9303 16.583 4.13672V26.125L16.5869 26.2012C16.6043 26.3776 16.6836 26.5381 16.8037 26.6553C16.9393 26.7875 17.1139 26.8537 17.2861 26.8545H17.5273C18.267 23.9714 20.9492 21.8921 24.0576 21.8916H24.0752C25.8561 21.9092 27.569 22.6094 28.833 23.8564C29.6807 24.6927 30.2781 25.7308 30.5762 26.8574H40.499V16.7793C40.4924 16.72 40.4893 16.6595 40.4893 16.5986V4.13867L42.2959 4.14941H42.2969L40.4893 4.13867C40.4905 3.93223 40.4065 3.74165 40.2695 3.60742C40.1339 3.47468 39.9587 3.40718 39.7861 3.40625H17.2861ZM44.1133 23.0244C45.1971 22.3081 46.5007 21.8918 47.8896 21.8916H47.9062C49.6873 21.9091 51.4009 22.6093 52.665 23.8564C53.4288 24.6099 53.9887 25.5274 54.3105 26.5254C55.5116 25.975 56.3655 24.7942 56.3838 23.3867L55.4453 18.2998H44.1133V23.0244ZM8.85547 18.168C9.85335 18.168 10.6619 18.9307 10.6621 19.8711C10.6621 20.8117 9.8535 21.5751 8.85547 21.5752H5.58984C4.59176 21.5752 3.78223 20.8118 3.78223 19.8711C3.78246 18.9306 4.5919 18.168 5.58984 18.168H8.85547ZM44.1035 14.8936H54.8164L54.2031 11.5742L55.9814 11.2822H55.9805L54.2031 11.5742C54.181 11.454 54.1732 11.3319 54.1787 11.21L54.1816 11.0332C54.1747 10.1549 53.8193 9.31679 53.1973 8.69238C52.5351 8.02786 51.63 7.66327 50.6973 7.66895H44.1035V14.8936ZM8.85547 11.3555C9.8535 11.3555 10.6621 12.118 10.6621 13.0586C10.662 13.9991 9.85344 14.7617 8.85547 14.7617H4.15625C3.15838 14.7615 2.34971 13.9991 2.34961 13.0586C2.34961 12.118 3.15832 11.3556 4.15625 11.3555H8.85547ZM9.16113 4.54199C10.159 4.54218 10.9676 5.30466 10.9678 6.24512C10.9678 7.18568 10.159 7.94805 9.16113 7.94824H1.80762C0.80952 7.94824 0 7.1858 0 6.24512C0.000130774 5.30454 0.809601 4.54199 1.80762 4.54199H9.16113Z" fill="white"/>
</svg>
